<svg width="18" height="18" viewBox="0 0 18 18" fill="none" xmlns="http://www.w3.org/2000/svg">
<path d="M17.7775 13.2139C17.909 13.565 17.9855 13.9422 17.9973 14.3367C18 14.3742 18 14.4117 18 14.4508C18 16.4104 16.4105 18 14.4509 18C6.4696 18 0 11.5303 0 3.54902C0 1.58965 1.58967 0 3.54906 0C3.58812 0 3.62582 -1.24797e-08 3.66332 0.00292969C4.05786 0.0144531 4.43638 0.0912109 4.78755 0.222461L6.11999 5.99141C6.11999 5.99414 6.11862 5.9957 6.11569 5.99707L3.67191 7.09531L3.66469 7.09824C4.78618 10.5129 7.487 13.2139 10.9019 14.3352L10.9046 14.3279L12.0044 11.8828L17.7775 13.2139Z" fill="black"/>
</svg>
