<svg width="27" height="27" viewBox="0 0 27 27" fill="none" xmlns="http://www.w3.org/2000/svg">
<g filter="url(#filter0_i_2054_107)">
<path d="M13.5812 2.9314C7.7 2.9314 2.93164 7.69976 2.93164 13.581C2.93164 15.5789 3.49282 17.4415 4.45004 19.0393L3.02697 24.2306L8.32924 22.8387C9.87993 23.7204 11.6701 24.2306 13.5812 24.2306C19.4625 24.2306 24.2308 19.4622 24.2308 13.581C24.2308 7.69976 19.4625 2.9314 13.5812 2.9314ZM9.93604 8.61326C10.1091 8.61326 10.2869 8.61221 10.4404 8.6202C10.6304 8.62463 10.8371 8.63854 11.035 9.07606C11.2702 9.59612 11.7822 10.9008 11.8479 11.033C11.9136 11.1652 11.9601 11.321 11.8687 11.4941C11.7817 11.6716 11.7365 11.779 11.6087 11.9361C11.4765 12.0887 11.3316 12.2783 11.2118 12.3937C11.0795 12.5259 10.943 12.6709 11.0956 12.9345C11.2483 13.198 11.7784 14.0621 12.562 14.7597C13.5693 15.6596 14.4192 15.9361 14.6836 16.0683C14.9481 16.2006 15.1013 16.18 15.2539 16.0025C15.411 15.8294 15.9136 15.2356 16.0911 14.9711C16.2642 14.7067 16.4408 14.7524 16.6804 14.8394C16.9236 14.9264 18.2204 15.5652 18.4848 15.6974C18.7493 15.8296 18.9227 15.8951 18.9892 16.0025C19.0576 16.1134 19.0576 16.6415 18.8384 17.2574C18.6192 17.8724 17.5428 18.4672 17.06 18.5089C16.5728 18.5541 16.1181 18.7279 13.8932 17.8519C11.2095 16.795 9.51707 14.0462 9.38484 13.8687C9.25261 13.6957 8.31017 12.4396 8.31017 11.1439C8.31017 9.84379 8.99185 9.20706 9.23057 8.9426C9.47374 8.67813 9.75855 8.61326 9.93604 8.61326Z" fill="white" fill-opacity="0.52"/>
</g>
<defs>
<filter id="filter0_i_2054_107" x="0.269531" y="0.269043" width="26.624" height="30.624" filterUnits="userSpaceOnUse" color-interpolation-filters="sRGB">
<feFlood flood-opacity="0" result="BackgroundImageFix"/>
<feBlend mode="normal" in="SourceGraphic" in2="BackgroundImageFix" result="shape"/>
<feColorMatrix in="SourceAlpha" type="matrix" values="0 0 0 0 0 0 0 0 0 0 0 0 0 0 0 0 0 0 127 0" result="hardAlpha"/>
<feOffset dy="4"/>
<feGaussianBlur stdDeviation="7.5"/>
<feComposite in2="hardAlpha" operator="arithmetic" k2="-1" k3="1"/>
<feColorMatrix type="matrix" values="0 0 0 0 0 0 0 0 0 0 0 0 0 0 0 0 0 0 0.2 0"/>
<feBlend mode="normal" in2="shape" result="effect1_innerShadow_2054_107"/>
</filter>
</defs>
</svg>
