<svg width="27" height="27" viewBox="0 0 27 27" fill="none" xmlns="http://www.w3.org/2000/svg">
<g filter="url(#filter0_i_2054_28)">
<path d="M9.11707 3.18091C5.77285 3.18091 3.05176 5.9036 3.05176 9.24866V17.9148C3.05176 21.2594 5.77445 23.9809 9.11951 23.9809H17.7856C21.1303 23.9809 23.8518 21.2582 23.8518 17.9132V9.24622C23.8518 5.902 21.1291 3.18091 17.784 3.18091H9.11707ZM19.6918 6.50891C20.151 6.50891 20.5238 6.88164 20.5238 7.34091C20.5238 7.80017 20.151 8.17291 19.6918 8.17291C19.2325 8.17291 18.8598 7.80017 18.8598 7.34091C18.8598 6.88164 19.2325 6.50891 19.6918 6.50891ZM13.4518 8.17291C16.4345 8.17291 18.8598 10.5982 18.8598 13.5809C18.8598 16.5636 16.4341 18.9889 13.4518 18.9889C10.469 18.9889 8.04376 16.5632 8.04376 13.5809C8.04376 10.5986 10.469 8.17291 13.4518 8.17291ZM13.4518 9.83691C11.3838 9.83691 9.70776 11.513 9.70776 13.5809C9.70776 15.6488 11.3838 17.3249 13.4518 17.3249C15.5197 17.3249 17.1958 15.6488 17.1958 13.5809C17.1958 11.513 15.5197 9.83691 13.4518 9.83691Z" fill="white" fill-opacity="0.52"/>
</g>
<defs>
<filter id="filter0_i_2054_28" x="0.139648" y="0.269043" width="26.624" height="30.624" filterUnits="userSpaceOnUse" color-interpolation-filters="sRGB">
<feFlood flood-opacity="0" result="BackgroundImageFix"/>
<feBlend mode="normal" in="SourceGraphic" in2="BackgroundImageFix" result="shape"/>
<feColorMatrix in="SourceAlpha" type="matrix" values="0 0 0 0 0 0 0 0 0 0 0 0 0 0 0 0 0 0 127 0" result="hardAlpha"/>
<feOffset dy="4"/>
<feGaussianBlur stdDeviation="7.5"/>
<feComposite in2="hardAlpha" operator="arithmetic" k2="-1" k3="1"/>
<feColorMatrix type="matrix" values="0 0 0 0 0 0 0 0 0 0 0 0 0 0 0 0 0 0 0.2 0"/>
<feBlend mode="normal" in2="shape" result="effect1_innerShadow_2054_28"/>
</filter>
</defs>
</svg>
