<svg width="31" height="31" viewBox="0 0 31 31" fill="none" xmlns="http://www.w3.org/2000/svg">
<g filter="url(#filter0_i_2054_208)">
<path d="M25.6999 8.89561C25.2966 7.45693 24.4989 6.31801 23.3284 5.51239C21.8513 4.49476 20.1523 4.13386 18.685 3.91495C16.6547 3.61223 14.8156 3.56983 13.0644 3.7838C11.4216 3.98496 10.185 4.30642 9.05598 4.8251C6.84422 5.84075 5.51696 7.48553 5.11169 9.71208C4.91447 10.7928 4.78234 11.77 4.70542 12.7019C4.52793 14.8564 4.68866 16.7635 5.19747 18.5305C5.69248 20.2532 6.55826 21.4848 7.8441 22.2934C8.17246 22.4995 8.59056 22.6484 8.99682 22.7924C9.19995 22.8643 9.39519 22.9353 9.56578 23.0103V26.4911C9.56578 26.9467 9.93458 27.3155 10.3901 27.3155C10.6051 27.3155 10.8112 27.2317 10.965 27.0818L14.1767 23.9579C14.3167 23.7981 14.3167 23.7981 14.4607 23.7952C15.5582 23.7735 16.6793 23.7311 17.7936 23.6709C19.1435 23.597 20.7074 23.4668 22.1806 22.8525C23.5286 22.2895 24.5127 21.3961 25.1034 20.198C25.7196 18.9476 26.0865 17.5928 26.2235 16.0575C26.4641 13.3576 26.2926 11.0147 25.6999 8.89561ZM20.1079 19.1705C19.7855 19.6981 19.3023 20.0629 18.7343 20.2996C18.3192 20.4731 17.8952 20.4366 17.4859 20.2631C14.0504 18.8096 11.3575 16.518 9.57663 13.2255C9.20981 12.547 8.95442 11.8085 8.66155 11.0916C8.6014 10.9437 8.60633 10.7711 8.57971 10.6104C8.60535 9.45176 9.4938 8.79996 10.3911 8.60275C10.7343 8.52682 11.038 8.64811 11.2924 8.89167C11.9965 9.56417 12.5536 10.3432 12.9727 11.2168C13.1561 11.6004 13.0732 11.9396 12.7607 12.2246C12.6966 12.2838 12.6285 12.339 12.5585 12.3912C11.8456 12.9277 11.7411 13.3329 12.1207 14.1405C12.7676 15.5141 13.8414 16.4361 15.2308 17.008C15.5966 17.1589 15.9417 17.084 16.2218 16.7872C16.2593 16.7477 16.3017 16.7093 16.3293 16.6639C16.8775 15.7498 17.6713 15.8405 18.405 16.3622C18.8871 16.7043 19.3545 17.0652 19.8318 17.4143C20.5556 17.9478 20.5497 18.4487 20.1079 19.1705ZM15.9861 9.70715C15.8017 9.70715 15.6163 9.72194 15.4349 9.75251C15.1272 9.80477 14.8373 9.59671 14.7861 9.28906C14.7348 8.98239 14.9419 8.69149 15.2495 8.64022C15.4911 8.60078 15.7396 8.58007 15.9861 8.58007C18.4266 8.58007 20.4126 10.566 20.4126 13.0066C20.4126 13.2541 20.3919 13.5025 20.3515 13.7441C20.3051 14.0193 20.0665 14.2145 19.7963 14.2145C19.7657 14.2145 19.7342 14.2125 19.7026 14.2066C19.396 14.1543 19.1889 13.8644 19.2402 13.5578C19.2707 13.3783 19.2855 13.1929 19.2855 13.0075C19.2855 11.1872 17.8054 9.70715 15.9861 9.70715ZM18.4405 13.3694C18.4405 13.68 18.188 13.9325 17.8774 13.9325C17.5668 13.9325 17.3144 13.68 17.3144 13.3694C17.3144 12.4376 16.5561 11.6793 15.6242 11.6793C15.3136 11.6793 15.0612 11.4269 15.0612 11.1163C15.0612 10.8056 15.3136 10.5532 15.6242 10.5532C17.1763 10.5522 18.4405 11.8164 18.4405 13.3694ZM22.2329 14.0567C22.1737 14.319 21.942 14.4955 21.6836 14.4955C21.6422 14.4955 21.5998 14.4906 21.5584 14.4817C21.2547 14.4127 21.0644 14.111 21.1334 13.8082C21.2153 13.4483 21.2567 13.0766 21.2567 12.7038C21.2567 9.96452 19.0282 7.735 16.2879 7.735C15.9141 7.735 15.5434 7.77642 15.1834 7.85826C14.8817 7.92827 14.578 7.73697 14.51 7.43326C14.4409 7.12955 14.6312 6.82781 14.935 6.75977C15.3767 6.65821 15.8323 6.60792 16.2898 6.60792C19.6504 6.60792 22.3847 9.3423 22.3847 12.7028C22.3847 13.1604 22.3335 13.6159 22.2329 14.0567Z" fill="white" fill-opacity="0.52"/>
</g>
<defs>
<filter id="filter0_i_2054_208" x="0.691406" y="0.691406" width="29.582" height="33.5823" filterUnits="userSpaceOnUse" color-interpolation-filters="sRGB">
<feFlood flood-opacity="0" result="BackgroundImageFix"/>
<feBlend mode="normal" in="SourceGraphic" in2="BackgroundImageFix" result="shape"/>
<feColorMatrix in="SourceAlpha" type="matrix" values="0 0 0 0 0 0 0 0 0 0 0 0 0 0 0 0 0 0 127 0" result="hardAlpha"/>
<feOffset dy="4"/>
<feGaussianBlur stdDeviation="7.5"/>
<feComposite in2="hardAlpha" operator="arithmetic" k2="-1" k3="1"/>
<feColorMatrix type="matrix" values="0 0 0 0 0 0 0 0 0 0 0 0 0 0 0 0 0 0 0.2 0"/>
<feBlend mode="normal" in2="shape" result="effect1_innerShadow_2054_208"/>
</filter>
</defs>
</svg>
