<svg width="12" height="12" viewBox="0 0 12 12" fill="none" xmlns="http://www.w3.org/2000/svg">
<mask id="mask0_1_1098" style="mask-type:luminance" maskUnits="userSpaceOnUse" x="0" y="0" width="12" height="12">
<path d="M0 0H12V11.3792H0V0Z" fill="white"/>
</mask>
<g mask="url(#mask0_1_1098)">
<path d="M11.8633 0.0493919C10.1648 0.978426 6.65153 3.87088 3.84875 8.47184C3.75782 8.62172 3.56311 8.66906 3.41324 8.57845L3.41198 8.57751C3.33485 8.53016 3.25929 8.48031 3.18529 8.42795C2.27162 7.7811 0.274337 6.64387 0.274337 6.64387C0.149232 6.57333 0.0200518 6.6677 0.00876417 6.78371C0.0046881 6.79124 0.00500165 6.80378 0.00907772 6.8204C0.0122132 6.84642 0.0216195 6.87213 0.0382374 6.89722C0.205044 7.25591 0.999253 8.34611 1.75051 9.36106C2.59049 10.4964 3.3336 11.1417 3.45306 11.2423C3.45745 11.2461 3.46215 11.2499 3.46654 11.2536C3.46873 11.2555 3.4703 11.2567 3.4703 11.2567C3.69637 11.4383 4.04597 11.3822 4.19553 11.1131C5.33684 9.06193 9.03071 2.6537 11.9577 0.187979C12.0357 0.122134 11.9526 0.000478834 11.8633 0.0493919Z" fill="white"/>
</g>
</svg>
