<svg width="18" height="18" viewBox="0 0 18 18" fill="none" xmlns="http://www.w3.org/2000/svg">
<g filter="url(#filter0_i_2213_268)">
<path d="M6.0787 2.12061C3.84922 2.12061 2.03516 3.93573 2.03516 6.16577V11.9432C2.03516 14.173 3.85029 15.9873 6.08032 15.9873H11.8577C14.0875 15.9873 15.9018 14.1721 15.9018 11.9421V6.16415C15.9018 3.93466 14.0867 2.12061 11.8567 2.12061H6.0787ZM13.1285 4.33927C13.4347 4.33927 13.6832 4.58776 13.6832 4.89394C13.6832 5.20012 13.4347 5.44861 13.1285 5.44861C12.8223 5.44861 12.5738 5.20012 12.5738 4.89394C12.5738 4.58776 12.8223 4.33927 13.1285 4.33927ZM8.96849 5.44861C10.957 5.44861 12.5738 7.06546 12.5738 9.05394C12.5738 11.0424 10.9567 12.6593 8.96849 12.6593C6.98001 12.6593 5.36316 11.0421 5.36316 9.05394C5.36316 7.06574 6.98001 5.44861 8.96849 5.44861ZM8.96849 6.55794C7.58987 6.55794 6.47249 7.67532 6.47249 9.05394C6.47249 10.4326 7.58987 11.5499 8.96849 11.5499C10.3471 11.5499 11.4645 10.4326 11.4645 9.05394C11.4645 7.67532 10.3471 6.55794 8.96849 6.55794Z" fill="#FCC2D1"/>
</g>
<defs>
<filter id="filter0_i_2213_268" x="0.09375" y="0.179199" width="17.749" height="21.7495" filterUnits="userSpaceOnUse" color-interpolation-filters="sRGB">
<feFlood flood-opacity="0" result="BackgroundImageFix"/>
<feBlend mode="normal" in="SourceGraphic" in2="BackgroundImageFix" result="shape"/>
<feColorMatrix in="SourceAlpha" type="matrix" values="0 0 0 0 0 0 0 0 0 0 0 0 0 0 0 0 0 0 127 0" result="hardAlpha"/>
<feOffset dy="4"/>
<feGaussianBlur stdDeviation="7.5"/>
<feComposite in2="hardAlpha" operator="arithmetic" k2="-1" k3="1"/>
<feColorMatrix type="matrix" values="0 0 0 0 0 0 0 0 0 0 0 0 0 0 0 0 0 0 0.2 0"/>
<feBlend mode="normal" in2="shape" result="effect1_innerShadow_2213_268"/>
</filter>
</defs>
</svg>
