<svg width="20" height="20" viewBox="0 0 20 20" fill="none" xmlns="http://www.w3.org/2000/svg">
<g filter="url(#filter0_i_2213_110)">
<path d="M16.8006 5.59707C16.5317 4.63795 15.9999 3.87868 15.2196 3.34159C14.2348 2.66318 13.1022 2.42257 12.124 2.27663C10.7704 2.07482 9.54441 2.04655 8.3769 2.1892C7.2817 2.32331 6.45734 2.53761 5.70464 2.8834C4.23013 3.5605 3.34529 4.65702 3.07511 6.14139C2.94363 6.86188 2.85554 7.51334 2.80427 8.13457C2.68594 9.57095 2.79309 10.8423 3.1323 12.0204C3.46231 13.1688 4.03949 13.9899 4.89672 14.5289C5.11562 14.6663 5.39436 14.7656 5.6652 14.8616C5.80062 14.9096 5.93078 14.9569 6.04451 15.0068V17.3274C6.04451 17.6311 6.29037 17.877 6.59408 17.877C6.73739 17.877 6.87478 17.8211 6.97733 17.7212L9.11843 15.6386C9.21178 15.5321 9.21178 15.5321 9.30775 15.5301C10.0394 15.5157 10.7869 15.4874 11.5297 15.4473C12.4297 15.398 13.4723 15.3112 14.4544 14.9017C15.353 14.5263 16.0091 13.9307 16.4029 13.132C16.8138 12.2984 17.0583 11.3952 17.1497 10.3716C17.3101 8.57173 17.1957 7.00979 16.8006 5.59707ZM13.0726 12.447C12.8576 12.7987 12.5355 13.0419 12.1569 13.1997C11.8801 13.3154 11.5974 13.2911 11.3246 13.1754C9.03428 12.2064 7.23897 10.6786 6.05174 8.48364C5.80719 8.03136 5.63693 7.53898 5.44169 7.06107C5.40159 6.96246 5.40487 6.84742 5.38712 6.74026C5.40422 5.96784 5.99652 5.53331 6.59474 5.40183C6.8235 5.35121 7.02598 5.43207 7.19558 5.59444C7.66496 6.04278 8.03638 6.56211 8.31576 7.14455C8.43804 7.40027 8.38282 7.62641 8.17443 7.8164C8.1317 7.85584 8.08634 7.89265 8.03966 7.9275C7.56438 8.28511 7.49469 8.5553 7.74778 9.09369C8.17903 10.0094 8.89492 10.6241 9.82117 11.0054C10.0651 11.1059 10.2951 11.056 10.4818 10.8581C10.5068 10.8318 10.5351 10.8062 10.5535 10.7759C10.919 10.1665 11.4482 10.227 11.9373 10.5748C12.2587 10.8029 12.5703 11.0435 12.8885 11.2762C13.371 11.6318 13.3671 11.9658 13.0726 12.447ZM10.3247 6.1381C10.2018 6.1381 10.0782 6.14796 9.95725 6.16834C9.75215 6.20318 9.55887 6.06447 9.52469 5.85937C9.49051 5.65492 9.62856 5.461 9.83366 5.42681C9.99472 5.40052 10.1604 5.38671 10.3247 5.38671C11.9517 5.38671 13.2757 6.71068 13.2757 8.3377C13.2757 8.50271 13.2619 8.66837 13.235 8.82942C13.2041 9.01283 13.045 9.143 12.8649 9.143C12.8445 9.143 12.8234 9.14168 12.8024 9.13774C12.598 9.1029 12.4599 8.90963 12.4941 8.70518C12.5145 8.58554 12.5243 8.46195 12.5243 8.33836C12.5243 7.12483 11.5376 6.1381 10.3247 6.1381ZM11.961 8.57962C11.961 8.78669 11.7927 8.95498 11.5856 8.95498C11.3785 8.95498 11.2102 8.78669 11.2102 8.57962C11.2102 7.95839 10.7047 7.45286 10.0835 7.45286C9.87639 7.45286 9.7081 7.28458 9.7081 7.0775C9.7081 6.87042 9.87639 6.70213 10.0835 6.70213C11.1182 6.70148 11.961 7.54424 11.961 8.57962ZM14.4892 9.03781C14.4498 9.21268 14.2953 9.33035 14.1231 9.33035C14.0955 9.33035 14.0672 9.32706 14.0396 9.32115C13.8371 9.27513 13.7102 9.07397 13.7563 8.87215C13.8108 8.63221 13.8384 8.38438 13.8384 8.13589C13.8384 6.30968 12.3528 4.82333 10.5259 4.82333C10.2767 4.82333 10.0296 4.85094 9.78962 4.90551C9.58846 4.95218 9.38598 4.82465 9.34062 4.62218C9.29461 4.4197 9.42148 4.21854 9.62396 4.17318C9.91846 4.10547 10.2222 4.07195 10.5272 4.07195C12.7676 4.07195 14.5905 5.89487 14.5905 8.13523C14.5905 8.44025 14.5563 8.74396 14.4892 9.03781Z" fill="#FCC2D1"/>
</g>
<defs>
<filter id="filter0_i_2213_110" x="0.12793" y="0.127441" width="19.7217" height="23.7217" filterUnits="userSpaceOnUse" color-interpolation-filters="sRGB">
<feFlood flood-opacity="0" result="BackgroundImageFix"/>
<feBlend mode="normal" in="SourceGraphic" in2="BackgroundImageFix" result="shape"/>
<feColorMatrix in="SourceAlpha" type="matrix" values="0 0 0 0 0 0 0 0 0 0 0 0 0 0 0 0 0 0 127 0" result="hardAlpha"/>
<feOffset dy="4"/>
<feGaussianBlur stdDeviation="7.5"/>
<feComposite in2="hardAlpha" operator="arithmetic" k2="-1" k3="1"/>
<feColorMatrix type="matrix" values="0 0 0 0 0 0 0 0 0 0 0 0 0 0 0 0 0 0 0.2 0"/>
<feBlend mode="normal" in2="shape" result="effect1_innerShadow_2213_110"/>
</filter>
</defs>
</svg>
