<svg width="18" height="18" viewBox="0 0 18 18" fill="none" xmlns="http://www.w3.org/2000/svg">
<g filter="url(#filter0_i_2213_25)">
<path d="M9.05481 1.9541C5.13398 1.9541 1.95508 5.13301 1.95508 9.05384C1.95508 10.3858 2.3292 11.6275 2.96734 12.6927L2.01863 16.1536L5.55348 15.2257C6.58727 15.8134 7.7807 16.1536 9.05481 16.1536C12.9756 16.1536 16.1545 12.9747 16.1545 9.05384C16.1545 5.13301 12.9756 1.9541 9.05481 1.9541ZM6.62468 5.74201C6.74005 5.74201 6.85859 5.74131 6.96095 5.74664C7.08756 5.74959 7.22536 5.75887 7.3573 6.05055C7.51409 6.39725 7.85548 7.26701 7.89926 7.35517C7.94304 7.44332 7.97406 7.54718 7.91312 7.66255C7.85514 7.78088 7.82499 7.85249 7.73979 7.95721C7.65163 8.05898 7.55504 8.18537 7.47517 8.26228C7.38701 8.35044 7.29598 8.4471 7.39775 8.62281C7.49951 8.79853 7.85292 9.37458 8.37535 9.83961C9.04686 10.4395 9.61344 10.6239 9.78975 10.7121C9.96606 10.8002 10.0682 10.7865 10.1699 10.6681C10.2746 10.5528 10.6097 10.1569 10.7281 9.98059C10.8434 9.80428 10.9612 9.83479 11.1209 9.89277C11.2831 9.95075 12.1476 10.3766 12.3239 10.4648C12.5002 10.5529 12.6158 10.5966 12.6601 10.6681C12.7057 10.7421 12.7057 11.0942 12.5596 11.5048C12.4135 11.9148 11.6959 12.3113 11.374 12.3391C11.0492 12.3693 10.7461 12.4851 9.26281 11.9011C7.47368 11.1965 6.34537 9.36399 6.25721 9.24566C6.16906 9.13029 5.54077 8.29293 5.54077 7.42912C5.54077 6.56237 5.99522 6.13788 6.15437 5.96157C6.31648 5.78526 6.50635 5.74201 6.62468 5.74201Z" fill="#FCC2D1"/>
</g>
<defs>
<filter id="filter0_i_2213_25" x="0.179688" y="0.179199" width="17.749" height="21.7495" filterUnits="userSpaceOnUse" color-interpolation-filters="sRGB">
<feFlood flood-opacity="0" result="BackgroundImageFix"/>
<feBlend mode="normal" in="SourceGraphic" in2="BackgroundImageFix" result="shape"/>
<feColorMatrix in="SourceAlpha" type="matrix" values="0 0 0 0 0 0 0 0 0 0 0 0 0 0 0 0 0 0 127 0" result="hardAlpha"/>
<feOffset dy="4"/>
<feGaussianBlur stdDeviation="7.5"/>
<feComposite in2="hardAlpha" operator="arithmetic" k2="-1" k3="1"/>
<feColorMatrix type="matrix" values="0 0 0 0 0 0 0 0 0 0 0 0 0 0 0 0 0 0 0.2 0"/>
<feBlend mode="normal" in2="shape" result="effect1_innerShadow_2213_25"/>
</filter>
</defs>
</svg>
