<svg width="11" height="13" viewBox="0 0 11 13" fill="none" xmlns="http://www.w3.org/2000/svg">
<mask id="mask0_1_939" style="mask-type:luminance" maskUnits="userSpaceOnUse" x="0" y="0" width="11" height="13">
<path d="M0 0H11V12.7444H0V0Z" fill="white"/>
</mask>
<g mask="url(#mask0_1_939)">
<path d="M10.1266 1.37961H8.29225V1.11742C8.29225 0.502436 7.79277 0.00195312 7.17845 0.00195312H3.83138C3.2174 0.00195312 2.71758 0.502436 2.71758 1.11742V1.37961H0.883249C0.403011 1.37961 0.0117188 1.77123 0.0117188 2.25247V2.66633C0.0117188 3.11669 0.354224 3.48841 0.791981 3.53421L1.68973 11.4211C1.77502 12.1742 2.41058 12.7424 3.16795 12.7424H7.84189C8.59925 12.7424 9.23481 12.1742 9.3201 11.4211L10.2179 3.53421C10.6556 3.48841 10.9981 3.11669 10.9981 2.66633V2.25247C10.9981 1.77123 10.6068 1.37961 10.1266 1.37961ZM3.28344 1.11742C3.28344 0.81474 3.52904 0.568481 3.83172 0.568481H7.17845C7.48113 0.568481 7.72705 0.81474 7.72705 1.11742V1.37961H3.28344V1.11742ZM8.75855 11.3571C8.70545 11.8237 8.3115 12.1758 7.84222 12.1758H3.16795C2.69899 12.1758 2.30505 11.8237 2.25194 11.3571L1.36249 3.53918H9.648L8.75855 11.3571ZM10.4329 2.66633C10.4329 2.83526 10.2955 2.97266 10.1269 2.97266H0.883249C0.714652 2.97266 0.577251 2.83526 0.577251 2.66633V2.25247C0.577251 2.08354 0.714652 1.94614 0.883249 1.94614H10.1266C10.2952 1.94614 10.4326 2.08354 10.4326 2.25247V2.66633H10.4329Z" fill="black"/>
</g>
<path d="M5.50493 10.6428C5.66092 10.6428 5.7877 10.516 5.7877 10.3597V5.35521C5.7877 5.19889 5.66092 5.07178 5.50493 5.07178C5.34862 5.07178 5.22217 5.19889 5.22217 5.35521V10.3597C5.22217 10.516 5.34862 10.6428 5.50493 10.6428Z" fill="black"/>
<path d="M7.19554 10.6298C7.20483 10.6308 7.21412 10.6312 7.22308 10.6312C7.36712 10.6312 7.48992 10.5216 7.50419 10.3753L7.98874 5.39435C8.00368 5.23869 7.89017 5.09997 7.73485 5.08503C7.57687 5.06877 7.4408 5.1836 7.42587 5.33926L6.94131 10.3202C6.92605 10.4762 7.03988 10.6146 7.19521 10.6298H7.19554Z" fill="black"/>
<path d="M3.78651 10.6316C3.7958 10.6316 3.8051 10.6313 3.81439 10.6303C3.96971 10.615 4.08355 10.4766 4.06828 10.3206L3.58373 5.33969C3.56879 5.18403 3.43239 5.06953 3.27474 5.08546C3.11942 5.1004 3.00592 5.23913 3.02085 5.39478L3.5054 10.3757C3.51967 10.5221 3.6428 10.6316 3.78651 10.6316Z" fill="black"/>
</svg>
