<svg width="12" height="12" viewBox="0 0 12 12" fill="none" xmlns="http://www.w3.org/2000/svg">
<path fill-rule="evenodd" clip-rule="evenodd" d="M2.03092 0.304159C1.64662 -0.0924893 1.01353 -0.102497 0.616887 0.281806C0.220239 0.666109 0.210231 1.29919 0.594534 1.69584L4.60712 5.83732L0.281806 10.3016C-0.102497 10.6982 -0.0924893 11.3313 0.304159 11.7156C0.700807 12.0999 1.33389 12.0899 1.7182 11.6933L5.9995 7.27443L10.2808 11.6933C10.6651 12.0899 11.2982 12.0999 11.6948 11.7156C12.0915 11.3313 12.1015 10.6982 11.7172 10.3016L7.39188 5.83732L11.4045 1.69584C11.7888 1.29919 11.7788 0.666109 11.3821 0.281806C10.9855 -0.102497 10.3524 -0.0924893 9.96807 0.304159L5.9995 4.40022L2.03092 0.304159Z" fill="#7E7E7E"/>
</svg>
