<svg width="17" height="15" viewBox="0 0 17 15" fill="none" xmlns="http://www.w3.org/2000/svg">
<path d="M6.25716 12.8L6.72148 12.211L6.25716 12.8ZM8.55152 2.6732L8.01115 3.19331C8.15254 3.3402 8.34763 3.4232 8.55152 3.4232C8.7554 3.4232 8.9505 3.3402 9.09188 3.19331L8.55152 2.6732ZM10.8459 12.8L11.3102 13.389L10.8459 12.8ZM6.72148 12.211C5.56603 11.3001 4.33485 10.4339 3.35616 9.33187C2.40318 8.25879 1.75 7.02135 1.75 5.41929H0.25C0.25 7.48948 1.11446 9.0666 2.23459 10.3279C3.32901 11.5603 4.72641 12.5483 5.79285 13.389L6.72148 12.211ZM1.75 5.41929C1.75 3.86376 2.62869 2.56882 3.81328 2.02734C4.95059 1.50748 6.50407 1.6275 8.01115 3.19331L9.09188 2.1531C7.2009 0.188447 4.97862 -0.154613 3.18969 0.663112C1.44804 1.45923 0.25 3.30256 0.25 5.41929H1.75ZM5.79285 13.389C6.17798 13.6926 6.6031 14.0259 7.03678 14.2793C7.47022 14.5326 7.98354 14.75 8.55152 14.75V13.25C8.36434 13.25 8.12251 13.1764 7.79357 12.9842C7.46488 12.7921 7.1204 12.5255 6.72148 12.211L5.79285 13.389ZM11.3102 13.389C12.3766 12.5483 13.774 11.5603 14.8684 10.3279C15.9886 9.0666 16.853 7.48948 16.853 5.41929H15.353C15.353 7.02135 14.6999 8.25879 13.7469 9.33187C12.7682 10.4339 11.537 11.3001 10.3816 12.211L11.3102 13.389ZM16.853 5.41929C16.853 3.30256 15.655 1.45923 13.9133 0.663112C12.1244 -0.154613 9.90213 0.188447 8.01115 2.1531L9.09188 3.19331C10.599 1.6275 12.1524 1.50748 13.2898 2.02734C14.4743 2.56882 15.353 3.86376 15.353 5.41929H16.853ZM10.3816 12.211C9.98263 12.5255 9.63816 12.7921 9.30946 12.9842C8.98053 13.1764 8.73869 13.25 8.55152 13.25V14.75C9.11949 14.75 9.63281 14.5326 10.0662 14.2793C10.4999 14.0259 10.9251 13.6926 11.3102 13.389L10.3816 12.211Z" fill="white"/>
</svg>
