<svg width="40" height="38" viewBox="0 0 40 38" fill="none" xmlns="http://www.w3.org/2000/svg">
<g filter="url(#filter0_d_1_2334)">
<path d="M40 4H9C6.23857 4 4 6.23858 4 9V29C4 31.7614 6.23857 34 9 34H40V4Z" fill="white"/>
</g>
<mask id="mask0_1_2334" style="mask-type:luminance" maskUnits="userSpaceOnUse" x="14" y="12" width="17" height="5">
<path d="M31 12H14V16.5439H31V12Z" fill="white"/>
</mask>
<g mask="url(#mask0_1_2334)">
<path d="M14.5671 13.7014H24.8474C24.8625 13.6411 24.8804 13.5817 24.9007 13.5228C24.921 13.464 24.9435 13.406 24.9685 13.349C24.9935 13.2921 25.021 13.2363 25.0505 13.1816C25.0802 13.1269 25.112 13.0736 25.146 13.0215C25.18 12.9694 25.2163 12.9188 25.2544 12.8698C25.2925 12.8209 25.3327 12.7733 25.3749 12.7276C25.417 12.6819 25.461 12.638 25.5067 12.5958C25.5524 12.5538 25.6 12.5136 25.649 12.4753C25.698 12.4372 25.7486 12.4011 25.8006 12.3671C25.8527 12.3331 25.906 12.3013 25.9607 12.2718C26.0154 12.2421 26.0712 12.2148 26.1282 12.1898C26.1849 12.165 26.2429 12.1422 26.3016 12.1222C26.3604 12.1019 26.42 12.0842 26.4801 12.0691C26.5403 12.0537 26.6012 12.041 26.6625 12.0307C26.7238 12.0205 26.7855 12.0129 26.8474 12.0078C26.9093 12.0027 26.9714 12 27.0335 12C27.0956 12 27.1577 12.0027 27.2196 12.0078C27.2815 12.0129 27.3431 12.0205 27.4044 12.0307C27.4657 12.041 27.5266 12.0537 27.5868 12.0691C27.6469 12.0842 27.7065 12.1019 27.7654 12.1222C27.824 12.1422 27.882 12.165 27.9388 12.1898C27.9957 12.2148 28.0515 12.2421 28.1062 12.2718C28.1609 12.3013 28.2142 12.3331 28.2663 12.3671C28.3183 12.4011 28.369 12.4372 28.4179 12.4753C28.4669 12.5136 28.5145 12.5538 28.5602 12.5958C28.6059 12.638 28.65 12.6819 28.692 12.7276C28.7342 12.7733 28.7744 12.8209 28.8125 12.8698C28.8506 12.9188 28.8869 12.9694 28.9209 13.0215C28.9549 13.0736 28.9867 13.1269 29.0164 13.1816C29.0459 13.2363 29.0734 13.2921 29.0984 13.349C29.1234 13.406 29.146 13.464 29.1662 13.5228C29.1865 13.5817 29.2044 13.6411 29.2195 13.7014H30.4335C30.4706 13.7014 30.5075 13.705 30.544 13.7124C30.5805 13.7196 30.6159 13.7305 30.6503 13.7446C30.6846 13.7589 30.7174 13.7764 30.7483 13.7971C30.7791 13.8178 30.8077 13.8413 30.834 13.8676C30.8604 13.894 30.8838 13.9225 30.9045 13.9537C30.9252 13.9846 30.9426 14.0172 30.957 14.0516C30.9711 14.0861 30.982 14.1215 30.9891 14.158C30.9965 14.1947 31 14.2316 31 14.2687C31 14.306 30.9965 14.3429 30.9891 14.3794C30.982 14.416 30.9711 14.4515 30.957 14.4859C30.9426 14.5204 30.9252 14.553 30.9045 14.5839C30.8838 14.6148 30.8604 14.6435 30.834 14.67C30.8077 14.6962 30.7791 14.7198 30.7483 14.7405C30.7174 14.7612 30.6846 14.7786 30.6503 14.793C30.6159 14.8071 30.5805 14.818 30.544 14.8251C30.5075 14.8325 30.4706 14.836 30.4335 14.836H29.2195C29.2044 14.8965 29.1865 14.9559 29.1662 15.0147C29.146 15.0735 29.1234 15.1315 29.0984 15.1885C29.0734 15.2453 29.0459 15.3013 29.0164 15.356C28.9867 15.4105 28.9549 15.464 28.9209 15.516C28.8869 15.5681 28.8506 15.6185 28.8125 15.6677C28.7744 15.7167 28.7342 15.7643 28.692 15.81C28.65 15.8557 28.6059 15.8995 28.5602 15.9417C28.5145 15.9838 28.4669 16.0239 28.4179 16.0621C28.369 16.1004 28.3183 16.1365 28.2663 16.1705C28.2142 16.2045 28.1609 16.2363 28.1062 16.2658C28.0515 16.2953 27.9957 16.3228 27.9388 16.3476C27.882 16.3726 27.824 16.3951 27.7654 16.4154C27.7065 16.4355 27.6469 16.4533 27.5868 16.4685C27.5266 16.4839 27.4657 16.4966 27.4044 16.5068C27.3431 16.5171 27.2815 16.5246 27.2196 16.5298C27.1577 16.5349 27.0956 16.5376 27.0335 16.5376C26.9714 16.5376 26.9093 16.5349 26.8474 16.5298C26.7855 16.5246 26.7238 16.5171 26.6625 16.5068C26.6012 16.4966 26.5403 16.4839 26.4801 16.4685C26.42 16.4533 26.3604 16.4355 26.3016 16.4154C26.2429 16.3951 26.1849 16.3726 26.1282 16.3476C26.0712 16.3228 26.0154 16.2953 25.9607 16.2658C25.906 16.2363 25.8527 16.2045 25.8006 16.1705C25.7486 16.1365 25.698 16.1004 25.649 16.0621C25.6 16.0239 25.5524 15.9838 25.5067 15.9417C25.461 15.8995 25.417 15.8557 25.3749 15.81C25.3327 15.7643 25.2925 15.7167 25.2544 15.6677C25.2163 15.6185 25.18 15.5681 25.146 15.516C25.112 15.464 25.0802 15.4105 25.0505 15.356C25.021 15.3013 24.9935 15.2453 24.9685 15.1885C24.9435 15.1315 24.921 15.0735 24.9007 15.0147C24.8804 14.9559 24.8625 14.8965 24.8474 14.836H14.5671C14.5298 14.836 14.4929 14.8325 14.4564 14.8251C14.42 14.818 14.3845 14.8071 14.3501 14.793C14.3158 14.7786 14.283 14.7612 14.2523 14.7405C14.2214 14.7198 14.1927 14.6962 14.1664 14.67C14.14 14.6435 14.1166 14.6148 14.0959 14.5839C14.0752 14.553 14.0578 14.5204 14.0435 14.4859C14.0293 14.4515 14.0184 14.416 14.0113 14.3794C14.0039 14.3429 14.0004 14.306 14.0004 14.2687C14.0004 14.2316 14.0039 14.1947 14.0113 14.158C14.0184 14.1215 14.0293 14.0861 14.0435 14.0516C14.0578 14.0172 14.0752 13.9846 14.0959 13.9537C14.1166 13.9225 14.14 13.894 14.1664 13.8676C14.1927 13.8413 14.2214 13.8178 14.2523 13.7971C14.283 13.7764 14.3158 13.7589 14.3501 13.7446C14.3845 13.7305 14.42 13.7196 14.4564 13.7124C14.4929 13.705 14.5298 13.7014 14.5671 13.7014ZM27.0335 15.4033C27.0706 15.4033 27.1077 15.4017 27.1445 15.398C27.1814 15.3943 27.2181 15.3888 27.2546 15.3816C27.2909 15.3744 27.327 15.3654 27.3624 15.3545C27.3979 15.3437 27.4329 15.3312 27.4671 15.317C27.5014 15.3029 27.535 15.2869 27.5678 15.2695C27.6004 15.2519 27.6321 15.2328 27.6631 15.2121C27.694 15.1916 27.7238 15.1695 27.7524 15.1459C27.7811 15.1223 27.8086 15.0973 27.8348 15.0711C27.8611 15.0448 27.8859 15.0174 27.9094 14.9885C27.933 14.9598 27.9552 14.9301 27.9759 14.8991C27.9963 14.8682 28.0154 14.8364 28.033 14.8036C28.0505 14.7708 28.0662 14.7372 28.0806 14.703C28.0947 14.6685 28.1072 14.6337 28.1179 14.598C28.1287 14.5626 28.1378 14.5265 28.1449 14.49C28.1523 14.4538 28.1576 14.4169 28.1613 14.38C28.165 14.3431 28.1669 14.306 28.1669 14.2687C28.1669 14.2316 28.165 14.1945 28.1613 14.1576C28.1576 14.1205 28.1523 14.0838 28.1449 14.0473C28.1378 14.011 28.1287 13.975 28.1179 13.9393C28.1072 13.9039 28.0947 13.8688 28.0806 13.8346C28.0662 13.8001 28.0505 13.7667 28.033 13.7339C28.0154 13.7011 27.9963 13.6694 27.9759 13.6384C27.9552 13.6075 27.933 13.5778 27.9094 13.5489C27.8859 13.5202 27.8611 13.4927 27.8348 13.4665C27.8086 13.4402 27.7811 13.4152 27.7524 13.3917C27.7238 13.3681 27.694 13.346 27.6631 13.3253C27.6321 13.3048 27.6004 13.2857 27.5678 13.2681C27.535 13.2507 27.5014 13.2347 27.4671 13.2205C27.4329 13.2062 27.3979 13.1937 27.3624 13.183C27.327 13.1722 27.2909 13.1631 27.2546 13.156C27.2181 13.1486 27.1814 13.1433 27.1445 13.1396C27.1077 13.1359 27.0706 13.134 27.0335 13.134C26.9964 13.134 26.9593 13.1359 26.9224 13.1396C26.8855 13.1433 26.8488 13.1486 26.8123 13.156C26.776 13.1631 26.74 13.1722 26.7045 13.183C26.669 13.1937 26.634 13.2062 26.5998 13.2205C26.5655 13.2347 26.5319 13.2507 26.4991 13.2681C26.4665 13.2857 26.4348 13.3048 26.4038 13.3253C26.3729 13.346 26.3432 13.3681 26.3145 13.3917C26.2858 13.4152 26.2583 13.4402 26.2321 13.4665C26.2058 13.4927 26.181 13.5202 26.1575 13.5489C26.1339 13.5778 26.1118 13.6075 26.0911 13.6384C26.0706 13.6694 26.0515 13.7011 26.0339 13.7339C26.0165 13.7667 26.0007 13.8001 25.9863 13.8346C25.9722 13.8688 25.9597 13.9039 25.949 13.9393C25.9382 13.975 25.9291 14.011 25.922 14.0473C25.9146 14.0838 25.9093 14.1205 25.9056 14.1576C25.9019 14.1945 25.9002 14.2316 25.9002 14.2687C25.9002 14.306 25.9019 14.3431 25.9056 14.38C25.9093 14.4169 25.9146 14.4538 25.922 14.49C25.9291 14.5265 25.9382 14.5626 25.949 14.598C25.9597 14.6337 25.9722 14.6685 25.9863 14.703C26.0007 14.7372 26.0165 14.7708 26.0339 14.8036C26.0515 14.8364 26.0706 14.8682 26.0911 14.8991C26.1118 14.9301 26.1339 14.9598 26.1575 14.9885C26.181 15.0174 26.2058 15.0448 26.2321 15.0711C26.2583 15.0973 26.2858 15.1223 26.3145 15.1459C26.3432 15.1695 26.3729 15.1916 26.4038 15.2121C26.4348 15.2328 26.4665 15.2519 26.4991 15.2695C26.5319 15.2869 26.5655 15.3029 26.5998 15.317C26.634 15.3312 26.669 15.3437 26.7045 15.3545C26.74 15.3654 26.776 15.3744 26.8123 15.3816C26.8488 15.3888 26.8855 15.3943 26.9224 15.398C26.9593 15.4017 26.9964 15.4033 27.0335 15.4033Z" fill="black"/>
</g>
<mask id="mask1_1_2334" style="mask-type:luminance" maskUnits="userSpaceOnUse" x="14" y="21" width="17" height="5">
<path d="M31 21.0539H14V25.6134H31V21.0539Z" fill="white"/>
</mask>
<g mask="url(#mask1_1_2334)">
<path d="M14.5671 22.7806H22.014C22.0294 22.7204 22.047 22.6609 22.0673 22.6021C22.0876 22.5433 22.1102 22.4853 22.1354 22.4283C22.1604 22.3713 22.1876 22.3156 22.2172 22.2608C22.2469 22.2061 22.2786 22.1528 22.3127 22.1008C22.3469 22.0487 22.383 21.9981 22.4211 21.9491C22.4594 21.9001 22.4996 21.8526 22.5416 21.8069C22.5838 21.7611 22.6277 21.7173 22.6734 21.6751C22.7193 21.6331 22.7667 21.5929 22.8156 21.5546C22.8648 21.5164 22.9152 21.4804 22.9673 21.4463C23.0194 21.4123 23.0727 21.3805 23.1274 21.351C23.1821 21.3213 23.2378 21.2941 23.2948 21.269C23.3518 21.2442 23.4096 21.2215 23.4684 21.2014C23.527 21.1811 23.5867 21.1635 23.6469 21.1483C23.7072 21.133 23.7679 21.1202 23.8292 21.11C23.8904 21.0998 23.9521 21.0922 24.014 21.087C24.0759 21.0819 24.138 21.0793 24.2001 21.0793C24.2622 21.0793 24.3243 21.0819 24.3862 21.087C24.4483 21.0922 24.5098 21.0998 24.5711 21.11C24.6324 21.1202 24.6933 21.133 24.7535 21.1483C24.8138 21.1635 24.8732 21.1811 24.932 21.2014C24.9908 21.2215 25.0486 21.2442 25.1056 21.269C25.1624 21.2941 25.2184 21.3213 25.2729 21.351C25.3276 21.3805 25.3809 21.4123 25.4329 21.4463C25.485 21.4804 25.5356 21.5164 25.5846 21.5546C25.6338 21.5929 25.6811 21.6331 25.7269 21.6751C25.7726 21.7173 25.8166 21.7611 25.8586 21.8069C25.9009 21.8526 25.941 21.9001 25.9792 21.9491C26.0175 21.9981 26.0536 22.0487 26.0876 22.1008C26.1216 22.1528 26.1534 22.2061 26.1831 22.2608C26.2128 22.3156 26.2401 22.3713 26.2651 22.4283C26.2901 22.4853 26.3128 22.5433 26.3329 22.6021C26.3532 22.6609 26.371 22.7204 26.3864 22.7806H30.4335C30.4706 22.7806 30.5075 22.7843 30.544 22.7917C30.5805 22.7989 30.6159 22.8097 30.6503 22.8239C30.6846 22.8382 30.7174 22.8556 30.7483 22.8763C30.7791 22.897 30.8077 22.9206 30.834 22.9468C30.8604 22.9733 30.8838 23.0018 30.9045 23.0329C30.9252 23.0639 30.9426 23.0964 30.957 23.1309C30.9711 23.1653 30.982 23.2008 30.9891 23.2373C30.9965 23.2739 31 23.3108 31 23.3479C31 23.3852 30.9965 23.4221 30.9891 23.4586C30.982 23.4953 30.9711 23.5308 30.957 23.5652C30.9426 23.5996 30.9252 23.6322 30.9045 23.6632C30.8838 23.6941 30.8604 23.7228 30.834 23.7492C30.8077 23.7755 30.7791 23.799 30.7483 23.8197C30.7174 23.8404 30.6846 23.8579 30.6503 23.8722C30.6159 23.8864 30.5805 23.8972 30.544 23.9044C30.5075 23.9118 30.4706 23.9153 30.4335 23.9153H26.3864C26.371 23.9757 26.3532 24.0352 26.3329 24.094C26.3128 24.1528 26.2901 24.2108 26.2651 24.2676C26.2401 24.3246 26.2128 24.3805 26.1831 24.4352C26.1534 24.4897 26.1216 24.5432 26.0876 24.5953C26.0536 24.6474 26.0175 24.6978 25.9792 24.747C25.941 24.796 25.9009 24.8435 25.8586 24.8892C25.8166 24.9349 25.7726 24.9788 25.7269 25.021C25.6811 25.063 25.6338 25.1032 25.5846 25.1413C25.5356 25.1796 25.485 25.2157 25.4329 25.2497C25.3809 25.2838 25.3276 25.3155 25.2729 25.345C25.2184 25.3746 25.1624 25.402 25.1056 25.4268C25.0486 25.4518 24.9908 25.4744 24.932 25.4947C24.8732 25.5147 24.8138 25.5326 24.7535 25.5477C24.6933 25.5631 24.6324 25.5758 24.5711 25.5861C24.5098 25.5963 24.4483 25.6039 24.3862 25.609C24.3243 25.6141 24.2622 25.6168 24.2001 25.6168C24.138 25.6168 24.0759 25.6141 24.014 25.609C23.9521 25.6039 23.8904 25.5963 23.8292 25.5861C23.7679 25.5758 23.7072 25.5631 23.6469 25.5477C23.5867 25.5326 23.527 25.5147 23.4684 25.4947C23.4096 25.4744 23.3518 25.4518 23.2948 25.4268C23.2378 25.402 23.1821 25.3746 23.1274 25.345C23.0727 25.3155 23.0194 25.2838 22.9673 25.2497C22.9152 25.2157 22.8648 25.1796 22.8156 25.1413C22.7667 25.1032 22.7193 25.063 22.6734 25.021C22.6277 24.9788 22.5838 24.9349 22.5416 24.8892C22.4996 24.8435 22.4594 24.796 22.4211 24.747C22.383 24.6978 22.3469 24.6474 22.3127 24.5953C22.2786 24.5432 22.2469 24.4897 22.2172 24.4352C22.1876 24.3805 22.1604 24.3246 22.1354 24.2676C22.1102 24.2108 22.0876 24.1528 22.0673 24.094C22.047 24.0352 22.0294 23.9757 22.014 23.9153H14.5671C14.5298 23.9153 14.4929 23.9118 14.4564 23.9044C14.42 23.8972 14.3845 23.8864 14.3501 23.8722C14.3158 23.8579 14.283 23.8404 14.2523 23.8197C14.2214 23.799 14.1927 23.7755 14.1664 23.7492C14.14 23.7228 14.1166 23.6941 14.0959 23.6632C14.0752 23.6322 14.0578 23.5996 14.0435 23.5652C14.0293 23.5308 14.0184 23.4953 14.0113 23.4586C14.0039 23.4221 14.0004 23.3852 14.0004 23.3479C14.0004 23.3108 14.0039 23.2739 14.0113 23.2373C14.0184 23.2008 14.0293 23.1653 14.0435 23.1309C14.0578 23.0964 14.0752 23.0639 14.0959 23.0329C14.1166 23.0018 14.14 22.9733 14.1664 22.9468C14.1927 22.9206 14.2214 22.897 14.2523 22.8763C14.283 22.8556 14.3158 22.8382 14.3501 22.8239C14.3845 22.8097 14.42 22.7989 14.4564 22.7917C14.4929 22.7843 14.5298 22.7806 14.5671 22.7806ZM24.2001 24.4826C24.2372 24.4826 24.2743 24.4809 24.3112 24.4772C24.3481 24.4736 24.3848 24.468 24.4213 24.4609C24.4578 24.4537 24.4936 24.4447 24.5291 24.4338C24.5647 24.4229 24.5996 24.4104 24.6338 24.3963C24.6682 24.3821 24.7017 24.3662 24.7344 24.3487C24.7672 24.3311 24.799 24.3121 24.8298 24.2914C24.8607 24.2709 24.8904 24.2487 24.9191 24.2251C24.9478 24.2016 24.9753 24.1766 25.0015 24.1503C25.0277 24.1241 25.0527 24.0966 25.0763 24.0677C25.0999 24.039 25.1218 24.0093 25.1425 23.9784C25.163 23.9474 25.1821 23.9157 25.1997 23.8829C25.2171 23.8501 25.2331 23.8165 25.2473 23.7822C25.2614 23.7478 25.2739 23.713 25.2848 23.6773C25.2954 23.6418 25.3044 23.6058 25.3118 23.5693C25.319 23.533 25.3243 23.4961 25.328 23.4592C25.3317 23.4223 25.3335 23.3852 25.3335 23.3479C25.3335 23.3108 25.3317 23.2737 25.328 23.2368C25.3243 23.1997 25.319 23.1631 25.3118 23.1266C25.3044 23.0903 25.2954 23.0542 25.2848 23.0186C25.2739 22.9831 25.2614 22.9481 25.2473 22.9138C25.2331 22.8794 25.2171 22.846 25.1997 22.8132C25.1821 22.7804 25.163 22.7486 25.1425 22.7177C25.1218 22.6867 25.0999 22.657 25.0763 22.6281C25.0527 22.5994 25.0277 22.572 25.0015 22.5457C24.9753 22.5195 24.9478 22.4945 24.9191 22.4709C24.8904 22.4473 24.8607 22.4252 24.8298 22.4045C24.799 22.384 24.7672 22.365 24.7344 22.3473C24.7017 22.3299 24.6682 22.3139 24.6338 22.2998C24.5996 22.2854 24.5647 22.2729 24.5291 22.2623C24.4936 22.2514 24.4578 22.2424 24.4213 22.2352C24.3848 22.2278 24.3481 22.2225 24.3112 22.2188C24.2743 22.2151 24.2372 22.2133 24.2001 22.2133C24.163 22.2133 24.1259 22.2151 24.089 22.2188C24.0521 22.2225 24.0155 22.2278 23.9792 22.2352C23.9427 22.2424 23.9066 22.2514 23.8712 22.2623C23.8357 22.2729 23.8009 22.2854 23.7664 22.2998C23.7322 22.3139 23.6986 22.3299 23.666 22.3473C23.6332 22.365 23.6014 22.384 23.5705 22.4045C23.5398 22.4252 23.5098 22.4473 23.4811 22.4709C23.4524 22.4945 23.425 22.5195 23.3987 22.5457C23.3725 22.572 23.3477 22.5994 23.3241 22.6281C23.3006 22.657 23.2784 22.6867 23.2579 22.7177C23.2372 22.7486 23.2182 22.7804 23.2008 22.8132C23.1831 22.846 23.1673 22.8794 23.1532 22.9138C23.1389 22.9481 23.1264 22.9831 23.1157 23.0186C23.1048 23.0542 23.0958 23.0903 23.0886 23.1266C23.0815 23.1631 23.0759 23.1997 23.0722 23.2368C23.0688 23.2737 23.0669 23.3108 23.0669 23.3479C23.0669 23.3852 23.0688 23.4223 23.0722 23.4592C23.0759 23.4961 23.0815 23.533 23.0886 23.5693C23.0958 23.6058 23.1048 23.6418 23.1157 23.6773C23.1264 23.713 23.1389 23.7478 23.1532 23.7822C23.1673 23.8165 23.1831 23.8501 23.2008 23.8829C23.2182 23.9157 23.2372 23.9474 23.2579 23.9784C23.2784 24.0093 23.3006 24.039 23.3241 24.0677C23.3477 24.0966 23.3725 24.1241 23.3987 24.1503C23.425 24.1766 23.4524 24.2016 23.4811 24.2251C23.5098 24.2487 23.5398 24.2709 23.5705 24.2914C23.6014 24.3121 23.6332 24.3311 23.666 24.3487C23.6986 24.3662 23.7322 24.3821 23.7664 24.3963C23.8009 24.4104 23.8357 24.4229 23.8712 24.4338C23.9066 24.4447 23.9427 24.4537 23.9792 24.4609C24.0155 24.468 24.0521 24.4736 24.089 24.4772C24.1259 24.4809 24.163 24.4826 24.2001 24.4826Z" fill="black"/>
</g>
<path d="M14.5671 18.2397H15.2142C15.2295 18.1794 15.2472 18.12 15.2675 18.0612C15.2877 18.0024 15.3103 17.9444 15.3355 17.8874C15.3605 17.8304 15.3878 17.7746 15.4175 17.7199C15.447 17.6652 15.4788 17.6119 15.5128 17.5599C15.547 17.5078 15.5831 17.4572 15.6212 17.4082C15.6595 17.3592 15.6997 17.3116 15.7417 17.2659C15.784 17.2202 15.8278 17.1764 15.8735 17.1342C15.9194 17.0921 15.9668 17.052 16.0158 17.0136C16.0649 16.9755 16.1154 16.9394 16.1674 16.9054C16.2195 16.8714 16.2728 16.8396 16.3275 16.8101C16.3822 16.7804 16.438 16.7531 16.4949 16.7281C16.5519 16.7033 16.6097 16.6806 16.6685 16.6605C16.7272 16.6402 16.7868 16.6226 16.8471 16.6074C16.9073 16.592 16.968 16.5793 17.0293 16.5691C17.0906 16.5588 17.1522 16.5513 17.2141 16.5461C17.276 16.541 17.3381 16.5383 17.4002 16.5383C17.4623 16.5383 17.5245 16.541 17.5863 16.5461C17.6484 16.5513 17.7099 16.5588 17.7712 16.5691C17.8325 16.5793 17.8934 16.592 17.9536 16.6074C18.0139 16.6226 18.0733 16.6402 18.1321 16.6605C18.191 16.6806 18.2488 16.7033 18.3057 16.7281C18.3625 16.7531 18.4185 16.7804 18.473 16.8101C18.5277 16.8396 18.581 16.8714 18.6331 16.9054C18.6851 16.9394 18.7358 16.9755 18.7847 17.0136C18.8339 17.052 18.8813 17.0921 18.927 17.1342C18.9727 17.1764 19.0167 17.2202 19.0588 17.2659C19.101 17.3116 19.1412 17.3592 19.1793 17.4082C19.2176 17.4572 19.2537 17.5078 19.2877 17.5599C19.3217 17.6119 19.3535 17.6652 19.3832 17.7199C19.4129 17.7746 19.4402 17.8304 19.4652 17.8874C19.4902 17.9444 19.5129 18.0024 19.533 18.0612C19.5533 18.12 19.5712 18.1794 19.5865 18.2397H30.4335C30.4706 18.2397 30.5075 18.2434 30.544 18.2508C30.5805 18.2579 30.6159 18.2688 30.6503 18.2829C30.6846 18.2973 30.7174 18.3147 30.7483 18.3354C30.7791 18.3561 30.8077 18.3797 30.834 18.4059C30.8604 18.4324 30.8838 18.4608 30.9045 18.492C30.9252 18.5229 30.9426 18.5555 30.957 18.59C30.9711 18.6244 30.982 18.6599 30.9891 18.6963C30.9965 18.733 31 18.7699 31 18.807C31 18.8443 30.9965 18.8812 30.9891 18.9177C30.982 18.9544 30.9711 18.9898 30.957 19.0243C30.9426 19.0587 30.9252 19.0913 30.9045 19.1222C30.8838 19.1532 30.8604 19.1819 30.834 19.2083C30.8077 19.2346 30.7791 19.2581 30.7483 19.2788C30.7174 19.2995 30.6846 19.317 30.6503 19.3313C30.6159 19.3454 30.5805 19.3563 30.544 19.3635C30.5075 19.3709 30.4706 19.3743 30.4335 19.3743H19.5865C19.5712 19.4348 19.5533 19.4942 19.533 19.5531C19.5129 19.6119 19.4902 19.6699 19.4652 19.7269C19.4402 19.7836 19.4129 19.8396 19.3832 19.8943C19.3535 19.9488 19.3217 20.0023 19.2877 20.0544C19.2537 20.1064 19.2176 20.1569 19.1793 20.2061C19.1412 20.255 19.101 20.3026 19.0588 20.3483C19.0167 20.394 18.9727 20.4379 18.927 20.4801C18.8813 20.5221 18.8339 20.5623 18.7847 20.6004C18.7358 20.6387 18.6851 20.6748 18.6331 20.7088C18.581 20.7428 18.5277 20.7746 18.473 20.8041C18.4185 20.8336 18.3625 20.8609 18.3057 20.8859C18.2488 20.9109 18.191 20.9335 18.1321 20.9537C18.0733 20.9738 18.0139 20.9917 17.9536 21.0068C17.8934 21.0222 17.8325 21.0349 17.7712 21.0452C17.7099 21.0554 17.6484 21.063 17.5863 21.0681C17.5245 21.0732 17.4623 21.0759 17.4002 21.0759C17.3381 21.0759 17.276 21.0732 17.2141 21.0681C17.1522 21.063 17.0906 21.0554 17.0293 21.0452C16.968 21.0349 16.9073 21.0222 16.8471 21.0068C16.7868 20.9917 16.7272 20.9738 16.6685 20.9537C16.6097 20.9335 16.5519 20.9109 16.4949 20.8859C16.438 20.8609 16.3822 20.8336 16.3275 20.8041C16.2728 20.7746 16.2195 20.7428 16.1674 20.7088C16.1154 20.6748 16.0649 20.6387 16.0158 20.6004C15.9668 20.5623 15.9194 20.5221 15.8735 20.4801C15.8278 20.4379 15.784 20.394 15.7417 20.3483C15.6997 20.3026 15.6595 20.255 15.6212 20.2061C15.5831 20.1569 15.547 20.1064 15.5128 20.0544C15.4788 20.0023 15.447 19.9488 15.4175 19.8943C15.3878 19.8396 15.3605 19.7836 15.3355 19.7269C15.3103 19.6699 15.2877 19.6119 15.2675 19.5531C15.2472 19.4942 15.2295 19.4348 15.2142 19.3743H14.5671C14.5298 19.3743 14.4929 19.3709 14.4564 19.3635C14.42 19.3563 14.3845 19.3454 14.3501 19.3313C14.3158 19.317 14.283 19.2995 14.2523 19.2788C14.2214 19.2581 14.1927 19.2346 14.1664 19.2083C14.14 19.1819 14.1166 19.1532 14.0959 19.1222C14.0752 19.0913 14.0578 19.0587 14.0435 19.0243C14.0293 18.9898 14.0184 18.9544 14.0113 18.9177C14.0039 18.8812 14.0004 18.8443 14.0004 18.807C14.0004 18.7699 14.0039 18.733 14.0113 18.6963C14.0184 18.6599 14.0293 18.6244 14.0435 18.59C14.0578 18.5555 14.0752 18.5229 14.0959 18.492C14.1166 18.4608 14.14 18.4324 14.1664 18.4059C14.1927 18.3797 14.2214 18.3561 14.2523 18.3354C14.283 18.3147 14.3158 18.2973 14.3501 18.2829C14.3845 18.2688 14.42 18.2579 14.4564 18.2508C14.4929 18.2434 14.5298 18.2397 14.5671 18.2397ZM17.4002 19.9417C17.4373 19.9417 17.4744 19.94 17.5113 19.9363C17.5482 19.9326 17.5849 19.9271 17.6214 19.9199C17.6579 19.9128 17.6937 19.9037 17.7292 19.8929C17.7649 19.882 17.7997 19.8695 17.8339 19.8554C17.8684 19.8412 17.9018 19.8252 17.9346 19.8078C17.9674 19.7902 17.9991 19.7711 18.0299 19.7504C18.0608 19.7299 18.0905 19.7078 18.1192 19.6842C18.1479 19.6607 18.1754 19.6357 18.2016 19.6094C18.2279 19.5832 18.2529 19.5557 18.2764 19.5268C18.3 19.4981 18.3219 19.4684 18.3426 19.4375C18.3631 19.4065 18.3822 19.3748 18.3998 19.342C18.4172 19.3092 18.4332 19.2756 18.4474 19.2413C18.4615 19.2069 18.474 19.172 18.4849 19.1364C18.4955 19.1009 18.5046 19.0649 18.5119 19.0284C18.5191 18.9921 18.5244 18.9552 18.5281 18.9183C18.5318 18.8814 18.5337 18.8443 18.5337 18.807C18.5337 18.7699 18.5318 18.7328 18.5281 18.6959C18.5244 18.6588 18.5191 18.6221 18.5119 18.5857C18.5046 18.5494 18.4955 18.5133 18.4849 18.4777C18.474 18.4422 18.4615 18.4071 18.4474 18.3729C18.4332 18.3385 18.4172 18.3051 18.3998 18.2723C18.3822 18.2395 18.3631 18.2077 18.3426 18.1768C18.3219 18.1458 18.3 18.1161 18.2764 18.0872C18.2529 18.0585 18.2279 18.031 18.2016 18.0048C18.1754 17.9786 18.1479 17.9536 18.1192 17.93C18.0905 17.9064 18.0608 17.8843 18.0299 17.8636C17.9991 17.8431 17.9674 17.824 17.9346 17.8064C17.9018 17.789 17.8684 17.773 17.8339 17.7589C17.7997 17.7445 17.7649 17.732 17.7292 17.7214C17.6937 17.7105 17.6579 17.7015 17.6214 17.6943C17.5849 17.6869 17.5482 17.6816 17.5113 17.6779C17.4744 17.6742 17.4373 17.6724 17.4002 17.6724C17.3631 17.6724 17.3261 17.6742 17.2892 17.6779C17.2523 17.6816 17.2156 17.6869 17.1793 17.6943C17.1428 17.7015 17.1067 17.7105 17.0713 17.7214C17.0358 17.732 17.001 17.7445 16.9666 17.7589C16.9323 17.773 16.8987 17.789 16.8661 17.8064C16.8333 17.824 16.8016 17.8431 16.7706 17.8636C16.7399 17.8843 16.7099 17.9064 16.6813 17.93C16.6526 17.9536 16.6251 17.9786 16.5989 18.0048C16.5726 18.031 16.5478 18.0585 16.5243 18.0872C16.5007 18.1161 16.4786 18.1458 16.4581 18.1768C16.4374 18.2077 16.4183 18.2395 16.4009 18.2723C16.3832 18.3051 16.3675 18.3385 16.3533 18.3729C16.339 18.4071 16.3265 18.4422 16.3158 18.4777C16.305 18.5133 16.2959 18.5494 16.2888 18.5857C16.2816 18.6221 16.2761 18.6588 16.2724 18.6959C16.2689 18.7328 16.267 18.7699 16.267 18.807C16.267 18.8443 16.2689 18.8814 16.2724 18.9183C16.2761 18.9552 16.2816 18.9921 16.2888 19.0284C16.2959 19.0649 16.305 19.1009 16.3158 19.1364C16.3265 19.172 16.339 19.2069 16.3533 19.2413C16.3675 19.2756 16.3832 19.3092 16.4009 19.342C16.4183 19.3748 16.4374 19.4065 16.4581 19.4375C16.4786 19.4684 16.5007 19.4981 16.5243 19.5268C16.5478 19.5557 16.5726 19.5832 16.5989 19.6094C16.6251 19.6357 16.6526 19.6607 16.6813 19.6842C16.7099 19.7078 16.7399 19.7299 16.7706 19.7504C16.8016 19.7711 16.8333 19.7902 16.8661 19.8078C16.8987 19.8252 16.9323 19.8412 16.9666 19.8554C17.001 19.8695 17.0358 19.882 17.0713 19.8929C17.1067 19.9037 17.1428 19.9128 17.1793 19.9199C17.2156 19.9271 17.2523 19.9326 17.2892 19.9363C17.3261 19.94 17.3631 19.9417 17.4002 19.9417Z" fill="black"/>
<defs>
<filter id="filter0_d_1_2334" x="0" y="0" width="44" height="38" filterUnits="userSpaceOnUse" color-interpolation-filters="sRGB">
<feFlood flood-opacity="0" result="BackgroundImageFix"/>
<feColorMatrix in="SourceAlpha" type="matrix" values="0 0 0 0 0 0 0 0 0 0 0 0 0 0 0 0 0 0 127 0" result="hardAlpha"/>
<feOffset/>
<feGaussianBlur stdDeviation="2"/>
<feComposite in2="hardAlpha" operator="out"/>
<feColorMatrix type="matrix" values="0 0 0 0 0 0 0 0 0 0 0 0 0 0 0 0 0 0 0.25 0"/>
<feBlend mode="normal" in2="BackgroundImageFix" result="effect1_dropShadow_1_2334"/>
<feBlend mode="normal" in="SourceGraphic" in2="effect1_dropShadow_1_2334" result="shape"/>
</filter>
</defs>
</svg>
