<svg width="24" height="21" viewBox="0 0 24 21" fill="none" xmlns="http://www.w3.org/2000/svg">
<path d="M21.3036 2.67974C20.766 2.14721 20.1277 1.72477 19.4252 1.43656C18.7228 1.14834 17.9699 1 17.2094 1C16.449 1 15.6961 1.14834 14.9936 1.43656C14.2911 1.72477 13.6529 2.14721 13.1153 2.67974L11.9997 3.7844L10.8841 2.67974C9.79824 1.60458 8.32554 1.00056 6.78996 1.00056C5.25436 1.00056 3.78167 1.60458 2.69584 2.67974C1.61001 3.7549 1 5.21312 1 6.73364C1 8.25414 1.61001 9.71238 2.69584 10.7875L3.81146 11.8922L11.9997 20L20.1879 11.8922L21.3036 10.7875C21.8413 10.2553 22.268 9.62328 22.5591 8.92769C22.8501 8.23212 23 7.48656 23 6.73364C23 5.9807 22.8501 5.23515 22.5591 4.53957C22.268 3.844 21.8413 3.212 21.3036 2.67974Z" stroke="#363636" stroke-linecap="round" stroke-linejoin="round"/>
</svg>
