<svg width="30" height="30" viewBox="0 0 30 30" fill="none" xmlns="http://www.w3.org/2000/svg">
<path d="M16.0059 1.24417C15.8742 1.11138 15.7175 1.00599 15.5449 0.93407C15.3723 0.862148 15.1871 0.825119 15.0001 0.825119C14.8131 0.825119 14.6279 0.862148 14.4553 0.93407C14.2826 1.00599 14.1259 1.11138 13.9942 1.24417L1.24424 13.9942C1.11146 14.1259 1.00607 14.2825 0.934147 14.4552C0.862224 14.6278 0.825195 14.813 0.825195 15C0.825195 15.187 0.862224 15.3722 0.934147 15.5448C1.00607 15.7175 1.11146 15.8741 1.24424 16.0058C1.37662 16.1371 1.53361 16.241 1.70621 16.3115C1.87881 16.382 2.06363 16.4177 2.25008 16.4167H3.66674V26.3333C3.66674 27.0848 3.96525 27.8055 4.49661 28.3368C5.02796 28.8682 5.74863 29.1667 6.50008 29.1667H23.5001C24.2515 29.1667 24.9722 28.8682 25.5035 28.3368C26.0349 27.8055 26.3334 27.0848 26.3334 26.3333V16.4167H27.7501C28.1258 16.4167 28.4861 16.2674 28.7518 16.0017C29.0175 15.7361 29.1667 15.3757 29.1667 15C29.1678 14.8136 29.1321 14.6287 29.0616 14.4561C28.9911 14.2835 28.8872 14.1265 28.7559 13.9942L16.0059 1.24417ZM6.50008 26.3333V12.7475L15.0001 4.2475L23.5001 12.7475V26.3333H6.50008Z" fill="white"/>
</svg>
