<svg width="15" height="21" viewBox="0 0 15 21" fill="none" xmlns="http://www.w3.org/2000/svg">
<mask id="mask0_1_1790" style="mask-type:luminance" maskUnits="userSpaceOnUse" x="0" y="0" width="15" height="21">
<path d="M0 0H14.6377V21H0V0Z" fill="white"/>
</mask>
<g mask="url(#mask0_1_1790)">
<path fill-rule="evenodd" clip-rule="evenodd" d="M7.31886 0.0078125C11.3611 0.0078125 14.6379 3.2886 14.6379 7.33571C14.6379 8.74368 14.241 10.0587 13.5532 11.1754C12.7285 12.5433 11.9036 13.9114 11.0789 15.2795C10.0741 16.9144 9.26119 18.2373 8.25689 19.8724C7.37123 21.3137 7.31144 21.3491 6.42115 19.9004C5.42171 18.2737 4.58147 16.9062 3.58203 15.2795C2.75894 13.9267 1.93631 12.5741 1.11322 11.2215C0.408071 10.0951 0 8.76314 0 7.33571C0 3.2886 3.27685 0.0078125 7.31886 0.0078125ZM7.31886 3.68184C9.13096 3.68184 10.6001 5.15261 10.6001 6.9668C10.6001 8.78098 9.13119 10.2518 7.31886 10.2518C5.50675 10.2518 4.03784 8.78098 4.03784 6.9668C4.03784 5.15261 5.50675 3.68184 7.31886 3.68184Z" fill="#040404"/>
</g>
</svg>
