<svg width="11" height="20" viewBox="0 0 11 20" fill="none" xmlns="http://www.w3.org/2000/svg">
<path d="M1.87994 10L10.7716 1.27803C10.8448 1.20774 10.9027 1.12429 10.9419 1.03252C10.9811 0.940736 11.0008 0.842449 11 0.743341C10.9991 0.644233 10.9777 0.546272 10.9369 0.455128C10.8961 0.363983 10.8368 0.281464 10.7623 0.212347C10.6879 0.143229 10.5999 0.0888849 10.5033 0.0524592C10.4067 0.0160334 10.3036 -0.0017508 10.1998 0.000135823C10.0959 0.00202245 9.99354 0.0235424 9.89849 0.0634503C9.80345 0.103358 9.71764 0.160862 9.64603 0.232633L0.222438 9.4773C0.079805 9.61724 0 9.80477 0 10C0 10.1952 0.079805 10.3828 0.222438 10.5227L9.64603 19.7674C9.71764 19.8391 9.80345 19.8966 9.89849 19.9366C9.99354 19.9765 10.0959 19.998 10.1998 19.9999C10.3036 20.0018 10.4067 19.984 10.5033 19.9475C10.5999 19.9111 10.6879 19.8568 10.7623 19.7877C10.8368 19.7185 10.8961 19.636 10.9369 19.5449C10.9777 19.4537 10.9991 19.3558 11 19.2567C11.0008 19.1576 10.9811 19.0593 10.9419 18.9675C10.9027 18.8757 10.8448 18.7923 10.7716 18.722L1.87994 10Z" fill="white"/>
</svg>
