<svg width="68" height="73" viewBox="0 0 68 73" fill="none" xmlns="http://www.w3.org/2000/svg">
<mask id="mask0_1_778" style="mask-type:luminance" maskUnits="userSpaceOnUse" x="0" y="0" width="68" height="73">
<path d="M0 0H67.16V73H0V0Z" fill="white"/>
</mask>
<g mask="url(#mask0_1_778)">
<path d="M67.1564 66.4072V65.6696C67.1564 61.1432 66.2686 56.748 64.5158 52.6094C62.8258 48.6134 60.4058 45.0243 57.3223 41.9446C54.2407 38.8649 50.6496 36.4468 46.6517 34.7567C46.3894 34.6446 46.1251 34.5381 45.859 34.4336C46.3609 34.021 46.8456 33.5838 47.3095 33.1199C49.0908 31.3406 50.4918 29.2665 51.469 26.9549C52.4822 24.5596 52.9974 22.0198 52.9974 19.402C52.9974 16.7843 52.4822 14.2426 51.469 11.8473C50.4918 9.53753 49.0908 7.46349 47.3095 5.68221C45.5282 3.90094 43.4523 2.50367 41.1406 1.52654C38.7434 0.513281 36.1998 0 33.5821 0C30.9624 0 28.4188 0.513281 26.0235 1.52654C23.7099 2.50367 21.634 3.90094 19.8527 5.68221C18.0715 7.46349 16.6723 9.53753 15.6933 11.8473C14.68 14.2426 14.1667 16.7843 14.1667 19.402C14.1667 22.0198 14.68 24.5596 15.6933 26.9549C16.6723 29.2665 18.0715 31.3406 19.8527 33.1199C20.3166 33.5838 20.8014 34.021 21.3051 34.4336C21.039 34.5381 20.7728 34.6446 20.5105 34.7567C16.5126 36.4468 12.9215 38.8649 9.83995 41.9446C6.75836 45.0243 4.33643 48.6134 2.64641 52.6094C0.893646 56.748 0.00585938 61.1432 0.00585938 65.6696V66.4072C0.00585938 69.8519 2.65021 72.6901 6.01695 73L61.6015 72.9411L61.6224 72.9392C62.2003 72.8802 62.7611 72.7091 63.2744 72.4354C65.5633 71.3898 67.1564 69.082 67.1564 66.4072ZM19.271 25.4416C18.4612 23.5292 18.0505 21.497 18.0505 19.402C18.0505 17.3071 18.4612 15.2749 19.271 13.3605C20.0542 11.5127 21.174 9.8531 22.5997 8.42732C24.0255 7.00154 25.687 5.88372 27.5367 5.1024C29.4511 4.29255 31.4852 3.88193 33.5821 3.88193C35.677 3.88193 37.7111 4.29255 39.6274 5.1024C41.4752 5.88372 43.1367 7.00154 44.5625 8.42732C45.9883 9.8531 47.1099 11.5127 47.8912 13.3605C48.701 15.2749 49.1117 17.3071 49.1117 19.402C49.1117 21.497 48.701 23.5292 47.8912 25.4416C47.108 27.2895 45.9883 28.951 44.5625 30.3748C43.1367 31.8006 41.4752 32.9203 39.6274 33.7017C37.7111 34.5115 35.677 34.9202 33.5821 34.9202C31.4852 34.9202 29.4511 34.5115 27.5367 33.7017C25.687 32.9203 24.0255 31.8006 22.5997 30.3748C21.174 28.951 20.0542 27.2895 19.271 25.4416ZM63.2725 66.4072C63.2725 67.9185 62.0426 69.1466 60.5312 69.1466H6.63099C5.11966 69.1466 3.88969 67.9185 3.88969 66.4072V65.6696C3.88969 61.6641 4.67482 57.7803 6.22417 54.1208C7.71839 50.5886 9.86086 47.4139 12.587 44.6897C15.313 41.9655 18.4878 39.8249 22.0237 38.3307C22.8032 38.0018 23.6035 37.7034 24.4038 37.4429C24.6833 37.3517 24.9665 37.2642 25.2479 37.1825C25.3524 37.1521 25.4513 37.114 25.5464 37.0684C25.7041 37.1388 25.8638 37.2091 26.0235 37.2775C28.4188 38.2889 30.9624 38.8041 33.5821 38.8041C36.1998 38.8041 38.7434 38.2889 41.1387 37.2775C41.3003 37.2091 41.4581 37.1388 41.6159 37.0684C41.7109 37.114 41.8098 37.1521 41.9143 37.1825C43.0017 37.5 44.0872 37.8878 45.1385 38.3307C48.6744 39.8268 51.8492 41.9655 54.5753 44.6897C57.3033 47.4139 59.4438 50.5886 60.938 54.1208C62.4874 57.7784 63.2725 61.6641 63.2725 65.6696V66.4072Z" fill="#7E7E7E"/>
</g>
</svg>
