<svg width="55" height="57" viewBox="0 0 55 57" fill="none" xmlns="http://www.w3.org/2000/svg">
<mask id="mask0_1_1370" style="mask-type:luminance" maskUnits="userSpaceOnUse" x="0" y="31" width="55" height="26">
<path d="M0 31.1465H54.5515V57.0001H0V31.1465Z" fill="white"/>
</mask>
<g mask="url(#mask0_1_1370)">
<path d="M3.53442 53.527C4.06994 45.9881 8.26038 39.1603 14.8458 35.0858C22.2136 40.5943 32.448 40.5943 39.8158 35.0858C46.3402 39.0993 50.5307 45.9881 51.1316 53.527H3.53442ZM40.4718 31.4949C39.8768 31.1364 39.0988 31.1974 38.4978 31.6719C31.9734 37.1208 22.5721 37.1208 16.0477 31.6719C15.5077 31.1974 14.7297 31.1364 14.0678 31.4949C5.38791 36.3473 0 45.4466 0 55.263C0 56.2225 0.77799 57.0005 1.73746 57.0005H52.8691C53.8241 57.0005 54.6006 56.2225 54.6006 55.263C54.6006 45.4466 49.2127 36.3473 40.4718 31.4949Z" fill="#999999"/>
</g>
<mask id="mask1_1_1370" style="mask-type:luminance" maskUnits="userSpaceOnUse" x="12" y="0" width="30" height="30">
<path d="M12.6151 0H41.9377V29.513H12.6151V0Z" fill="white"/>
</mask>
<g mask="url(#mask1_1_1370)">
<path d="M27.303 3.5955C33.4079 3.5955 38.4373 8.56542 38.4373 14.7298C38.4373 20.8957 33.4079 25.8091 27.303 25.8091C21.1936 25.8091 16.1642 20.8407 16.1642 14.6703C16.1642 8.50443 21.1936 3.5955 27.303 3.5955ZM27.303 29.2781C35.3269 29.2781 41.9122 22.7537 41.9122 14.6703C41.9122 6.58995 35.3269 0.12207 27.303 0.12207C19.2791 0.12207 12.7562 6.64647 12.7562 14.7298C12.7562 22.8147 19.2791 29.2781 27.303 29.2781Z" fill="#999999"/>
</g>
</svg>
