<svg width="66" height="57" viewBox="0 0 66 57" fill="none" xmlns="http://www.w3.org/2000/svg">
<mask id="mask0_1_1343" style="mask-type:luminance" maskUnits="userSpaceOnUse" x="0" y="0" width="66" height="45">
<path d="M0 0H65.5172V44.8383H0V0Z" fill="white"/>
</mask>
<g mask="url(#mask0_1_1343)">
<path d="M38.3721 31.5999L40.1073 23.8794H45.6592L42.7041 31.5999H38.3721ZM28.0805 20.9977V13.2755H39.5391L37.804 20.9977H28.0805ZM28.0805 23.8794H37.1573L35.4221 31.5999H28.0805V23.8794ZM16.127 23.8794H25.2038V31.5999H17.8622L16.127 23.8794ZM13.7452 13.2755H25.2038V20.9977H15.4786L13.7452 13.2755ZM12.5304 20.9977H6.47855L3.53198 13.2755H10.7952L12.5304 20.9977ZM10.5273 31.5999L7.57903 23.8794H13.177L14.9122 31.5999H10.5273ZM46.7614 20.9977H40.7539L42.4874 13.2755H49.7148L46.7614 20.9977ZM64.0876 0.0663164L55.8092 0.0117188C55.7512 0.0117188 55.6932 0.0134248 55.6369 0.0185435C55.6335 0.0202495 55.6301 0.0202496 55.6267 0.0202496C55.584 0.0236622 55.5414 0.0321929 55.5004 0.0390176C55.4936 0.0407237 55.4851 0.0424301 55.4783 0.0441361C55.4407 0.0509613 55.4032 0.0611981 55.3674 0.071435C55.3571 0.0748475 55.3486 0.0782599 55.3383 0.081672C55.3042 0.0919093 55.2701 0.105559 55.236 0.117502C55.2274 0.12262 55.2172 0.126033 55.207 0.131151C55.1746 0.144801 55.1421 0.161862 55.1097 0.177218C55.1012 0.182337 55.0927 0.185749 55.0858 0.190867C55.0517 0.209635 55.0176 0.230109 54.9852 0.250584C54.9818 0.253996 54.9749 0.257408 54.9715 0.260821C54.9374 0.284707 54.9033 0.308594 54.8709 0.335892C54.8691 0.337599 54.8657 0.339305 54.864 0.341011C54.8299 0.36831 54.7975 0.399021 54.7651 0.429732C54.7651 0.429732 54.7651 0.431438 54.7634 0.431438C54.7327 0.463856 54.7019 0.496273 54.6729 0.530397C54.6729 0.532103 54.6712 0.532103 54.6712 0.533809C54.6422 0.567933 54.6166 0.602056 54.5927 0.637886C54.5893 0.641298 54.5876 0.64471 54.5859 0.646417C54.5637 0.68054 54.5416 0.71637 54.5211 0.7522C54.5177 0.759024 54.5143 0.765849 54.5108 0.772674C54.4938 0.805091 54.4767 0.840921 54.4614 0.875044C54.4563 0.885282 54.4528 0.893813 54.4494 0.904049C54.4443 0.915993 54.4392 0.92623 54.4358 0.936467L50.817 10.3938H1.44533C1.39585 10.3938 1.34466 10.3972 1.29518 10.4006C1.29348 10.4006 1.29348 10.4006 1.29348 10.4006C1.24912 10.4075 1.20305 10.4126 1.15869 10.4228C1.15528 10.4228 1.15016 10.4245 1.14675 10.4245C1.1075 10.433 1.06826 10.4433 1.02902 10.4552C1.02049 10.4569 1.01196 10.4603 1.00343 10.4638C0.977833 10.4706 0.952241 10.4791 0.926648 10.4894C0.916411 10.4928 0.90788 10.4962 0.899349 10.5013C0.889112 10.5047 0.878875 10.5098 0.868638 10.5132C0.832809 10.5286 0.800391 10.544 0.767974 10.5627C0.759443 10.5661 0.752618 10.5695 0.745793 10.573C0.709964 10.5934 0.67584 10.6156 0.641717 10.6378C0.638304 10.6395 0.634892 10.6412 0.63148 10.6429C0.59565 10.6685 0.55982 10.6941 0.527403 10.7214C0.525697 10.7231 0.525696 10.7231 0.52399 10.7248C0.489867 10.7538 0.455743 10.7845 0.425032 10.8152C0.423326 10.8152 0.423326 10.8169 0.42162 10.8169C0.390908 10.8494 0.361903 10.8818 0.332898 10.9159C0.331192 10.9176 0.329486 10.9193 0.32778 10.9227C0.300481 10.9551 0.276594 10.9893 0.252708 11.0234C0.249296 11.0285 0.245883 11.0336 0.242471 11.0387C0.22029 11.0712 0.199816 11.1036 0.182755 11.1377C0.177636 11.1462 0.172518 11.1531 0.169105 11.1616C0.152043 11.194 0.136688 11.2264 0.121333 11.2605C0.11792 11.2708 0.112801 11.281 0.109389 11.2913C0.0957399 11.3237 0.0837967 11.3578 0.0718534 11.3936C0.0684412 11.4022 0.0667351 11.4124 0.0633225 11.4209C0.0513796 11.4585 0.0428483 11.496 0.0343175 11.5335C0.0326114 11.5404 0.030905 11.5472 0.0291989 11.554C0.0206682 11.5967 0.0138431 11.6393 0.010431 11.6837C0.010431 11.6854 0.0104313 11.6888 0.00872482 11.6922C0.000194042 11.7878 0.000193714 11.885 0.010431 11.9806C0.010431 11.9823 0.010431 11.9823 0.010431 11.984C0.0138431 12.0266 0.0206682 12.0727 0.0291989 12.117C0.030905 12.1205 0.0309048 12.1256 0.0326113 12.1307C0.0411421 12.1699 0.0513795 12.2075 0.0616163 12.2467C0.0650289 12.2552 0.0667351 12.2655 0.0701472 12.274C0.0786784 12.2996 0.0872092 12.3252 0.097446 12.3491L8.19326 33.5552C8.19667 33.562 8.19838 33.5688 8.20179 33.5756C8.20861 33.5944 8.21714 33.6132 8.22567 33.6302C8.23591 33.6541 8.24615 33.6763 8.25809 33.6985C8.26492 33.7138 8.27174 33.7275 8.28027 33.7428C8.29904 33.7753 8.31781 33.8077 8.33828 33.8384C8.34169 33.8401 8.3434 33.8452 8.34511 33.8486C8.3707 33.8845 8.39629 33.9203 8.4253 33.9544C8.42871 33.9578 8.43042 33.9612 8.43383 33.9646C8.45772 33.9937 8.48331 34.0227 8.51061 34.05C8.51743 34.0568 8.52426 34.0636 8.52937 34.0687C8.55667 34.0943 8.58227 34.1182 8.60956 34.1404C8.61468 34.1472 8.62151 34.1523 8.62833 34.1574C8.66246 34.1847 8.69658 34.2103 8.73241 34.2342C8.73412 34.2359 8.73753 34.2376 8.74094 34.241C8.77165 34.2615 8.80407 34.2803 8.83649 34.2991C8.85014 34.3076 8.86549 34.3144 8.88085 34.3212C8.90132 34.3332 8.92521 34.3434 8.94739 34.3554C8.96445 34.3622 8.98151 34.369 8.99687 34.3758C9.02417 34.3861 9.05147 34.3963 9.07876 34.4048C9.09412 34.41 9.10606 34.4151 9.12142 34.4202C9.15725 34.4321 9.19478 34.4407 9.23232 34.4492C9.24597 34.4509 9.25962 34.4543 9.27156 34.456C9.30569 34.4628 9.3381 34.468 9.37052 34.4714C9.38076 34.4731 9.39099 34.4731 9.40123 34.4748C9.4473 34.4799 9.49166 34.4816 9.53773 34.4816C9.53943 34.4816 9.54284 34.4816 9.54626 34.4816H41.6019L38.7731 41.8762L9.7783 41.9274C8.98322 41.9291 8.34169 42.5757 8.3434 43.3708C8.34511 44.1659 8.98834 44.8091 9.78171 44.8091H9.78341L39.7541 44.7562C39.7575 44.7562 39.7592 44.7562 39.7627 44.7562C39.8087 44.7562 39.8548 44.7528 39.9009 44.7494C39.9111 44.7477 39.9213 44.746 39.9316 44.7443C39.964 44.7409 39.9981 44.7357 40.0305 44.7306C40.0442 44.7272 40.0561 44.7255 40.0681 44.7221C40.109 44.7136 40.1483 44.7033 40.1858 44.6914C40.2011 44.688 40.2131 44.6828 40.2267 44.6777C40.2523 44.6692 40.2779 44.659 40.3035 44.6487C40.3206 44.6419 40.3376 44.6351 40.3547 44.6283C40.3769 44.618 40.3991 44.6061 40.4212 44.5941C40.4366 44.5873 40.452 44.5805 40.4656 44.5719C40.4997 44.5515 40.5356 44.531 40.5697 44.5088L40.5714 44.5071C40.6072 44.4832 40.6396 44.4576 40.672 44.4303C40.6806 44.4252 40.6874 44.4184 40.6942 44.4133C40.7198 44.3894 40.7471 44.3672 40.771 44.3416C40.7778 44.3365 40.7847 44.3297 40.7898 44.3228C40.8188 44.2955 40.8444 44.2648 40.87 44.2358C40.8717 44.2324 40.8751 44.2307 40.8768 44.2273C40.9041 44.1932 40.9314 44.1573 40.9553 44.1215C40.9587 44.1147 40.9621 44.1096 40.9655 44.1045C40.9843 44.0755 41.003 44.0464 41.0201 44.0157C41.0286 44.0004 41.0355 43.985 41.0423 43.9714C41.0542 43.9492 41.0645 43.927 41.0747 43.9048C41.0832 43.8861 41.0918 43.8673 41.0986 43.8502C41.102 43.8417 41.1037 43.8366 41.1071 43.8298L44.9119 33.8845C44.9836 33.7838 45.045 33.6746 45.091 33.5552L53.1869 12.3491C53.1971 12.3252 53.2056 12.2996 53.2142 12.274C53.2159 12.2655 53.2193 12.2552 53.221 12.2467C53.2329 12.2075 53.2432 12.1699 53.2517 12.1307C53.2517 12.1256 53.2534 12.1205 53.2551 12.117C53.2585 12.0932 53.2619 12.071 53.2653 12.0471L56.7664 2.90028L64.0689 2.94805C64.0723 2.94805 64.0757 2.94805 64.0774 2.94805C64.869 2.94805 65.5123 2.30823 65.5174 1.51657C65.5225 0.719783 64.881 0.0714346 64.0876 0.0663164Z" fill="#999999"/>
</g>
<mask id="mask1_1_1343" style="mask-type:luminance" maskUnits="userSpaceOnUse" x="4" y="45" width="12" height="12">
<path d="M4.58674 45.7119H15.9431V57H4.58674V45.7119Z" fill="white"/>
</mask>
<g mask="url(#mask1_1_1343)">
<path d="M10.7799 54.0381C9.36894 54.3128 7.99546 53.3881 7.72077 51.9736C7.58769 51.2895 7.72759 50.5933 8.1166 50.0149C8.50732 49.4366 9.09765 49.0441 9.78183 48.9111C9.94904 48.8786 10.1162 48.8616 10.2817 48.8616C11.5034 48.8616 12.597 49.7283 12.8393 50.9738C13.1157 52.3865 12.191 53.7617 10.7799 54.0381ZM9.23074 46.0822C7.79243 46.3637 6.55033 47.1878 5.73137 48.406C4.9124 49.6225 4.61553 51.0864 4.89704 52.5264C5.40719 55.1454 7.70712 56.9676 10.2783 56.9676C10.6264 56.9676 10.9779 56.9352 11.331 56.8652C14.2998 56.2851 16.2431 53.3949 15.6647 50.4227C15.0846 47.4506 12.1995 45.5038 9.23074 46.0822Z" fill="#999999"/>
</g>
<mask id="mask2_1_1343" style="mask-type:luminance" maskUnits="userSpaceOnUse" x="34" y="45" width="12" height="12">
<path d="M34.2881 45.7119H45.6444V57H34.2881V45.7119Z" fill="white"/>
</mask>
<g mask="url(#mask2_1_1343)">
<path d="M40.5524 54.0381C39.1397 54.3128 37.7679 53.3881 37.4932 51.9736C37.3584 51.2895 37.5001 50.5933 37.8891 50.0149C38.2781 49.4366 38.8701 49.0441 39.5526 48.9111C39.7215 48.8786 39.887 48.8616 40.0542 48.8616C41.2741 48.8616 42.3695 49.7283 42.6118 50.9738C42.8865 52.3865 41.9634 53.7617 40.5524 54.0381ZM39.0015 46.0822C37.5632 46.3637 36.3211 47.1878 35.5021 48.406C34.6849 49.6225 34.388 51.0864 34.6678 52.5264C35.1779 55.1454 37.4796 56.9676 40.0508 56.9676C40.3971 56.9676 40.7486 56.9352 41.1018 56.8652C44.0705 56.2851 46.0139 53.3949 45.4355 50.4227C44.8571 47.4506 41.9702 45.5038 39.0015 46.0822Z" fill="#999999"/>
</g>
</svg>
