<svg width="68" height="59" viewBox="0 0 68 59" fill="none" xmlns="http://www.w3.org/2000/svg">
<path d="M24.0506 52.7383L24.5149 52.1493L24.0506 52.7383ZM34.1105 8.33636L33.5701 8.85646C33.7115 9.00336 33.9066 9.08636 34.1105 9.08636C34.3144 9.08636 34.5095 9.00336 34.6509 8.85646L34.1105 8.33636ZM44.1703 52.7383L44.6347 53.3273L44.1703 52.7383ZM24.5149 52.1493C19.5994 48.2743 13.9198 44.2702 9.43281 39.2177C4.97149 34.1941 1.75 28.1935 1.75 20.3769H0.25C0.25 28.6616 3.68277 35.0019 8.31124 40.2137C12.914 45.3966 18.7598 49.5225 23.5863 53.3273L24.5149 52.1493ZM1.75 20.3769C1.75 12.6068 6.14315 6.00091 12.2798 3.19581C18.3693 0.412322 26.3125 1.31603 33.5701 8.85646L34.6509 7.81626C27.0093 -0.123024 18.3973 -1.24977 11.6563 1.83158C4.9625 4.89131 0.25 12.0456 0.25 20.3769H1.75ZM23.5863 53.3273C25.2983 54.6769 27.0258 56.0257 28.7497 57.033C30.4733 58.0402 32.2646 58.75 34.1105 58.75V57.25C32.6454 57.25 31.1256 56.684 29.5065 55.7379C27.8876 54.7919 26.2407 53.5098 24.5149 52.1493L23.5863 53.3273ZM44.6347 53.3273C49.4612 49.5225 55.307 45.3966 59.9097 40.2137C64.5382 35.0019 67.971 28.6616 67.971 20.3769H66.471C66.471 28.1935 63.2495 34.1941 58.7882 39.2177C54.3011 44.2702 48.6216 48.2743 43.706 52.1493L44.6347 53.3273ZM67.971 20.3769C67.971 12.0456 63.2585 4.89131 56.5647 1.83158C49.8237 -1.24977 41.2117 -0.123024 33.5701 7.81626L34.6509 8.85646C41.9085 1.31603 49.8517 0.412322 55.9411 3.19581C62.0778 6.00091 66.471 12.6068 66.471 20.3769H67.971ZM43.706 52.1493C41.9803 53.5098 40.3334 54.7919 38.7145 55.7379C37.0954 56.684 35.5756 57.25 34.1105 57.25V58.75C35.9564 58.75 37.7477 58.0402 39.4713 57.033C41.1952 56.0256 42.9227 54.6769 44.6347 53.3273L43.706 52.1493Z" fill="#999999"/>
</svg>
