<svg width="54" height="57" viewBox="0 0 54 57" fill="none" xmlns="http://www.w3.org/2000/svg">
<mask id="mask0_1_1389" style="mask-type:luminance" maskUnits="userSpaceOnUse" x="0" y="0" width="37" height="57">
<path d="M0 0H36.0288V57H0V0Z" fill="white"/>
</mask>
<g mask="url(#mask0_1_1389)">
<path d="M33.9343 37.4062C33.817 37.4062 33.7013 37.4181 33.5855 37.4404C33.4712 37.4627 33.3584 37.4968 33.25 37.5413C33.1416 37.5859 33.0392 37.6408 32.9413 37.7061C32.8448 37.7714 32.7542 37.8456 32.6711 37.9273C32.588 38.0104 32.5138 38.1009 32.4484 38.1974C32.3831 38.2954 32.3282 38.3978 32.2837 38.5062C32.2391 38.6145 32.205 38.7259 32.1827 38.8402C32.159 38.9545 32.1486 39.0702 32.1486 39.1875V53.4375H3.57141V3.5625H32.1486V17.8125C32.1486 17.9298 32.159 18.0455 32.1827 18.1598C32.205 18.2741 32.2391 18.3855 32.2837 18.4938C32.3282 18.6022 32.3831 18.7046 32.4484 18.8026C32.5138 18.8991 32.588 18.9896 32.6711 19.0727C32.7542 19.1544 32.8448 19.2286 32.9413 19.2939C33.0392 19.3592 33.1416 19.4141 33.25 19.4587C33.3584 19.5032 33.4712 19.5373 33.5855 19.5596C33.7013 19.5819 33.817 19.5938 33.9343 19.5938C34.0516 19.5938 34.1673 19.5819 34.2831 19.5596C34.3974 19.5373 34.5088 19.5032 34.6171 19.4587C34.7255 19.4141 34.8294 19.3592 34.9259 19.2939C35.0238 19.2286 35.1144 19.1544 35.1975 19.0727C35.2791 18.9896 35.3534 18.8991 35.4187 18.8026C35.484 18.7046 35.5389 18.6022 35.5834 18.4938C35.6295 18.3855 35.6621 18.2741 35.6859 18.1598C35.7081 18.0455 35.72 17.9298 35.72 17.8125V1.78125C35.72 1.66398 35.7081 1.5482 35.6859 1.43391C35.6621 1.31961 35.6295 1.20828 35.5834 1.09992C35.5389 0.991563 35.484 0.889141 35.4187 0.791172C35.3534 0.694688 35.2791 0.604141 35.1975 0.521016C35.1144 0.439375 35.0238 0.365157 34.9259 0.299844C34.8294 0.234532 34.7255 0.179609 34.6171 0.135078C34.5088 0.0905467 34.3974 0.0564063 34.2831 0.0341406C34.1673 0.0118749 34.0516 0 33.9343 0H1.7857C1.66844 0 1.55266 0.0118749 1.43688 0.0341406C1.32258 0.0564063 1.21125 0.0905467 1.10289 0.135078C0.994531 0.179609 0.890625 0.234532 0.794141 0.299844C0.696172 0.365157 0.605625 0.439375 0.5225 0.521016C0.440859 0.604141 0.366641 0.694688 0.301328 0.791172C0.236016 0.889141 0.181094 0.991563 0.136563 1.09992C0.0905468 1.20828 0.0578906 1.31961 0.0341406 1.43391C0.0118749 1.5482 0 1.66398 0 1.78125V55.2188C0 55.336 0.0118749 55.4518 0.0341406 55.5661C0.0578906 55.6804 0.0905468 55.7917 0.136563 55.9001C0.181094 56.0084 0.236016 56.1109 0.301328 56.2088C0.366641 56.3053 0.440859 56.3959 0.5225 56.479C0.605625 56.5606 0.696172 56.6348 0.794141 56.7002C0.890625 56.7655 0.994531 56.8189 1.10289 56.8649C1.21125 56.9095 1.32258 56.9436 1.43688 56.9659C1.55266 56.9881 1.66844 57 1.7857 57H33.9343C34.0516 57 34.1673 56.9881 34.2831 56.9659C34.3974 56.9436 34.5088 56.9095 34.6171 56.8649C34.7255 56.8189 34.8294 56.7655 34.9259 56.7002C35.0238 56.6348 35.1144 56.5606 35.1975 56.479C35.2791 56.3959 35.3534 56.3053 35.4187 56.2088C35.484 56.1109 35.5389 56.0084 35.5834 55.9001C35.6295 55.7917 35.6621 55.6804 35.6859 55.5661C35.7081 55.4518 35.72 55.336 35.72 55.2188V39.1875C35.72 39.0702 35.7081 38.9545 35.6859 38.8402C35.6621 38.7259 35.6295 38.6145 35.5834 38.5062C35.5389 38.3978 35.484 38.2954 35.4187 38.1974C35.3534 38.1009 35.2791 38.0104 35.1975 37.9273C35.1144 37.8456 35.0238 37.7714 34.9259 37.7061C34.8294 37.6408 34.7255 37.5859 34.6171 37.5413C34.5088 37.4968 34.3974 37.4627 34.2831 37.4404C34.1673 37.4181 34.0516 37.4062 33.9343 37.4062Z" fill="#999999"/>
</g>
<mask id="mask1_1_1389" style="mask-type:luminance" maskUnits="userSpaceOnUse" x="10" y="15" width="44" height="27">
<path d="M10.5692 15.77H53.5805V41.23H10.5692V15.77Z" fill="white"/>
</mask>
<g mask="url(#mask1_1_1389)">
<path d="M53.0562 27.2411L42.3405 16.5536C42.2574 16.472 42.1669 16.4007 42.0704 16.3384C41.9724 16.276 41.87 16.2226 41.7616 16.1795C41.6547 16.1365 41.5434 16.1053 41.4291 16.083C41.3163 16.0623 41.2005 16.0519 41.0847 16.0534C40.969 16.0534 40.8532 16.0667 40.7404 16.089C40.6261 16.1127 40.5162 16.1469 40.4094 16.1914C40.3025 16.2359 40.2015 16.2909 40.1051 16.3547C40.0086 16.42 39.9195 16.4927 39.8379 16.5744C39.7547 16.656 39.682 16.7451 39.6167 16.8416C39.5529 16.938 39.4979 17.039 39.4534 17.1459C39.4089 17.2527 39.3747 17.3626 39.351 17.4754C39.3272 17.5882 39.3154 17.7025 39.3139 17.8183C39.3139 17.9341 39.3228 18.0484 39.3451 18.1627C39.3658 18.277 39.3985 18.3868 39.4415 18.4937C39.4846 18.602 39.538 18.7045 39.6004 18.8009C39.6627 18.8989 39.7354 18.988 39.8156 19.0711L47.4824 26.7186H12.5016C12.3843 26.7186 12.2686 26.7305 12.1543 26.7527C12.0385 26.775 11.9272 26.8091 11.8188 26.8537C11.7104 26.8982 11.608 26.9531 11.5101 27.0184C11.4121 27.0838 11.3215 27.158 11.2399 27.2396C11.1568 27.3227 11.0826 27.4133 11.0172 27.5098C10.9519 27.6077 10.897 27.7102 10.8525 27.8185C10.8079 27.9269 10.7738 28.0382 10.7501 28.1525C10.7278 28.2668 10.7159 28.3826 10.7159 28.4998C10.7159 28.6171 10.7278 28.7329 10.7501 28.8472C10.7738 28.9615 10.8079 29.0728 10.8525 29.1812C10.897 29.2895 10.9519 29.392 11.0172 29.4899C11.0826 29.5864 11.1568 29.677 11.2399 29.7601C11.3215 29.8417 11.4121 29.9159 11.5101 29.9813C11.608 30.0466 11.7104 30.1 11.8188 30.146C11.9272 30.1905 12.0385 30.2247 12.1543 30.247C12.2686 30.2692 12.3843 30.2811 12.5016 30.2811H47.4824L39.8156 37.9286C39.7295 38.0102 39.6538 38.0993 39.587 38.1973C39.5187 38.2952 39.4623 38.3977 39.4148 38.506C39.3688 38.6144 39.3332 38.7272 39.3079 38.843C39.2842 38.9588 39.2708 39.076 39.2708 39.1933C39.2694 39.312 39.2797 39.4293 39.302 39.5451C39.3243 39.6609 39.3584 39.7737 39.4029 39.8835C39.4475 39.9934 39.5039 40.0973 39.5692 40.1952C39.6345 40.2947 39.7102 40.3852 39.7933 40.4684C39.8765 40.553 39.9685 40.6272 40.0679 40.6925C40.1659 40.7578 40.2698 40.8127 40.3797 40.8573C40.4895 40.9033 40.6023 40.9359 40.7196 40.9582C40.8354 40.9805 40.9526 40.9909 41.0714 40.9909C41.1901 40.9894 41.3074 40.976 41.4232 40.9523C41.5404 40.9285 41.6518 40.8929 41.7616 40.8454C41.87 40.7994 41.9739 40.743 42.0704 40.6747C42.1683 40.6079 42.2589 40.5322 42.3405 40.4461L53.0562 29.7586C53.1394 29.677 53.2136 29.5864 53.2789 29.4899C53.3442 29.392 53.3991 29.2895 53.4436 29.1812C53.4897 29.0728 53.5223 28.9615 53.5461 28.8472C53.5683 28.7329 53.5802 28.6171 53.5802 28.4998C53.5802 28.3826 53.5683 28.2668 53.5461 28.1525C53.5223 28.0382 53.4897 27.9269 53.4436 27.8185C53.3991 27.7102 53.3442 27.6077 53.2789 27.5098C53.2136 27.4133 53.1394 27.3227 53.0562 27.2411Z" fill="#999999"/>
</g>
</svg>
