<svg width="45" height="12" viewBox="0 0 45 12" fill="none" xmlns="http://www.w3.org/2000/svg">
<mask id="mask0_1_512" style="mask-type:luminance" maskUnits="userSpaceOnUse" x="0" y="0" width="45" height="12">
<path d="M0 0H45V11.475H0V0Z" fill="white"/>
</mask>
<g mask="url(#mask0_1_512)">
<path d="M44.9973 1.04531C44.9973 0.467578 44.5273 0 43.9484 0H1.04844C0.469531 0 0.00195312 0.465234 0.00195312 1.04297V10.432C0.00195312 11.0098 0.469531 11.475 1.04844 11.475H43.9508C44.5297 11.475 44.9973 11.0098 44.9973 10.432V1.04531ZM2.09492 1.04297V4.17305H3.14141V1.04297H4.18789V4.17305H5.23438V1.04297H6.28086V6.25898H7.32734V1.04297H8.37383V4.17305H9.42031V1.04297H10.4668V4.17305H11.5121V1.04297H12.5586V4.17305H13.6051V1.04297H14.6516V6.25898H15.698V1.04297H16.7445V4.17305H17.791V1.04297H18.8375V4.17305H19.884V1.04297H20.9305V4.17305H21.977V1.04297H23.0223V6.25898H24.0688V1.04297H25.1152V4.17305H26.1617V1.04297H27.2082V4.17305H28.2547V1.04297H29.3012V4.17305H30.3477V1.04297H31.3941V6.25898H32.4406V1.04297H33.4871V4.17305H34.5324V1.04297H35.5789V4.17305H36.6254V1.04297H37.6719V4.17305H38.7184V1.04297H39.7648V6.25898H40.8113V1.04297H41.8578V4.17305H42.9043V1.04297H43.6871C43.8793 1.04297 43.9508 1.00547 43.9508 1.19766V9.9082C43.9508 10.1004 43.8793 10.432 43.6871 10.432H1.57461C1.38125 10.432 1.04844 10.1004 1.04844 9.9082V1.04297" fill="black"/>
</g>
</svg>
